<svg version="1.2" xmlns="http://www.w3.org/2000/svg" viewBox="0 0 3710 3710" width="3710" height="3710">
	<title>20945112</title>
	<defs>
		<linearGradient id="g1" x2="1" gradientUnits="userSpaceOnUse" gradientTransform="matrix(-3008.433,-3247.197,3624.019,-3357.547,2745.815,5706.513)">
			<stop offset="0" stop-color="#dae3fe"/>
			<stop offset="1" stop-color="#e9effd"/>
		</linearGradient>
		<linearGradient id="g2" x2="1" gradientUnits="userSpaceOnUse" gradientTransform="matrix(-48.459,872.27,-2845.885,-158.103,2067.728,1074.021)">
			<stop offset="0" stop-color="#09005d"/>
			<stop offset="1" stop-color="#1a0f91"/>
		</linearGradient>
		<linearGradient id="g3" x2="1" gradientUnits="userSpaceOnUse" gradientTransform="matrix(356.906,-1464.799,678.424,165.302,1265.24,2559.878)">
			<stop offset="0" stop-color="#4f52ff"/>
			<stop offset="1" stop-color="#4042e2"/>
		</linearGradient>
		<linearGradient id="g4" x2="1" gradientUnits="userSpaceOnUse" gradientTransform="matrix(-463.058,-1165.023,414.984,-164.942,-148.105,3380.388)">
			<stop offset="0" stop-color="#4f52ff"/>
			<stop offset="1" stop-color="#4042e2"/>
		</linearGradient>
		<linearGradient id="g5" x2="1" gradientUnits="userSpaceOnUse" gradientTransform="matrix(-727.638,2831.072,-2831.07,-727.638,3106.115,470.232)">
			<stop offset="0" stop-color="#ff928e"/>
			<stop offset="1" stop-color="#fe7062"/>
		</linearGradient>
		<linearGradient id="g6" x2="1" gradientUnits="userSpaceOnUse" gradientTransform="matrix(2040.091,-2904.534,2550.587,1791.485,1848.331,650.632)">
			<stop offset="0" stop-color="#09005d"/>
			<stop offset="1" stop-color="#1a0f91"/>
		</linearGradient>
		<linearGradient id="g7" x2="1" gradientUnits="userSpaceOnUse" gradientTransform="matrix(870.118,3385.428,-4238.985,1089.498,567.122,75.977)">
			<stop offset="0" stop-color="#ff928e"/>
			<stop offset="1" stop-color="#fe7062"/>
		</linearGradient>
		<linearGradient id="g8" x2="1" gradientUnits="userSpaceOnUse" gradientTransform="matrix(-163.445,-46.816,46.816,-163.445,695.193,1028.784)">
			<stop offset="0" stop-color="#ff928e"/>
			<stop offset="1" stop-color="#fe7062"/>
		</linearGradient>
		<linearGradient id="g9" x2="1" gradientUnits="userSpaceOnUse" gradientTransform="matrix(-269.511,-77.197,67.781,-236.638,647.876,1051.669)">
			<stop offset="0" stop-color="#ff928e"/>
			<stop offset="1" stop-color="#fe7062"/>
		</linearGradient>
		<linearGradient id="g10" x2="1" gradientUnits="userSpaceOnUse" gradientTransform="matrix(123.831,116.499,-116.499,123.831,579.171,1100.551)">
			<stop offset="0" stop-color="#ff928e"/>
			<stop offset="1" stop-color="#fe7062"/>
		</linearGradient>
		<linearGradient id="g11" x2="1" gradientUnits="userSpaceOnUse" gradientTransform="matrix(204.189,192.099,-168.668,179.284,631.715,1101.888)">
			<stop offset="0" stop-color="#ff928e"/>
			<stop offset="1" stop-color="#fe7062"/>
		</linearGradient>
		<linearGradient id="g12" x2="1" gradientUnits="userSpaceOnUse" gradientTransform="matrix(-51.356,-162.076,162.077,-51.356,721.746,1114.121)">
			<stop offset="0" stop-color="#ff928e"/>
			<stop offset="1" stop-color="#fe7062"/>
		</linearGradient>
		<linearGradient id="g13" x2="1" gradientUnits="userSpaceOnUse" gradientTransform="matrix(-84.684,-267.256,234.673,-74.359,676.517,1087.346)">
			<stop offset="0" stop-color="#ff928e"/>
			<stop offset="1" stop-color="#fe7062"/>
		</linearGradient>
		<linearGradient id="g14" x2="1" gradientUnits="userSpaceOnUse" gradientTransform="matrix(-69.828,317.219,-317.219,-69.828,901.572,408.411)">
			<stop offset="0" stop-color="#e1473d"/>
			<stop offset="1" stop-color="#e9605a"/>
		</linearGradient>
		<linearGradient id="g15" x2="1" gradientUnits="userSpaceOnUse" gradientTransform="matrix(-61.56,158.483,-158.483,-61.56,612.514,1125.015)">
			<stop offset="0" stop-color="#ff928e"/>
			<stop offset="1" stop-color="#fe7062"/>
		</linearGradient>
		<linearGradient id="g16" x2="1" gradientUnits="userSpaceOnUse" gradientTransform="matrix(-61.56,158.483,-158.483,-61.56,659.477,1136.03)">
			<stop offset="0" stop-color="#ff928e"/>
			<stop offset="1" stop-color="#fe7062"/>
		</linearGradient>
		<linearGradient id="g17" x2="1" gradientUnits="userSpaceOnUse" gradientTransform="matrix(-61.56,158.483,-158.483,-61.56,636.7,1076.859)">
			<stop offset="0" stop-color="#ff928e"/>
			<stop offset="1" stop-color="#fe7062"/>
		</linearGradient>
		<linearGradient id="g18" x2="1" gradientUnits="userSpaceOnUse" gradientTransform="matrix(-61.559,158.482,-158.482,-61.559,697.871,1097.249)">
			<stop offset="0" stop-color="#ff928e"/>
			<stop offset="1" stop-color="#fe7062"/>
		</linearGradient>
		<linearGradient id="g19" x2="1" gradientUnits="userSpaceOnUse" gradientTransform="matrix(-61.559,158.482,-158.482,-61.559,668.696,1174.845)">
			<stop offset="0" stop-color="#ff928e"/>
			<stop offset="1" stop-color="#fe7062"/>
		</linearGradient>
		<linearGradient id="g20" x2="1" gradientUnits="userSpaceOnUse" gradientTransform="matrix(-61.56,158.483,-158.483,-61.56,605.573,1174.845)">
			<stop offset="0" stop-color="#ff928e"/>
			<stop offset="1" stop-color="#fe7062"/>
		</linearGradient>
		<linearGradient id="g21" x2="1" gradientUnits="userSpaceOnUse" gradientTransform="matrix(-101.103,136.691,-136.691,-101.103,627.359,1018.953)">
			<stop offset="0" stop-color="#ff928e"/>
			<stop offset="1" stop-color="#fe7062"/>
		</linearGradient>
		<linearGradient id="g22" x2="1" gradientUnits="userSpaceOnUse" gradientTransform="matrix(-166.714,225.396,-197.916,-146.388,632.219,1071.287)">
			<stop offset="0" stop-color="#ff928e"/>
			<stop offset="1" stop-color="#fe7062"/>
		</linearGradient>
		<linearGradient id="g23" x2="1" gradientUnits="userSpaceOnUse" gradientTransform="matrix(71.078,154.448,-154.448,71.078,582.265,1066.408)">
			<stop offset="0" stop-color="#ff928e"/>
			<stop offset="1" stop-color="#fe7062"/>
		</linearGradient>
		<linearGradient id="g24" x2="1" gradientUnits="userSpaceOnUse" gradientTransform="matrix(116.022,252.108,-205.361,94.509,631.45,1086.477)">
			<stop offset="0" stop-color="#ff928e"/>
			<stop offset="1" stop-color="#fe7062"/>
		</linearGradient>
		<linearGradient id="g25" x2="1" gradientUnits="userSpaceOnUse" gradientTransform="matrix(32.512,139.378,-158.362,36.94,626.952,1079.13)">
			<stop offset="0" stop-color="#ff928e"/>
			<stop offset="1" stop-color="#fe7062"/>
		</linearGradient>
		<linearGradient id="g26" x2="1" gradientUnits="userSpaceOnUse" gradientTransform="matrix(53.069,227.506,-227.618,53.095,667.492,1098.197)">
			<stop offset="0" stop-color="#ff928e"/>
			<stop offset="1" stop-color="#fe7062"/>
		</linearGradient>
		<linearGradient id="g27" x2="1" gradientUnits="userSpaceOnUse" gradientTransform="matrix(126.006,81.015,-89.379,139.015,602.557,1109.009)">
			<stop offset="0" stop-color="#ff928e"/>
			<stop offset="1" stop-color="#fe7062"/>
		</linearGradient>
		<linearGradient id="g28" x2="1" gradientUnits="userSpaceOnUse" gradientTransform="matrix(163.171,125.898,-147.87,191.648,633.599,1093.636)">
			<stop offset="0" stop-color="#ff928e"/>
			<stop offset="1" stop-color="#fe7062"/>
		</linearGradient>
		<linearGradient id="g29" x2="1" gradientUnits="userSpaceOnUse" gradientTransform="matrix(168.29,24.185,-24.185,168.289,587.742,1135.341)">
			<stop offset="0" stop-color="#ff928e"/>
			<stop offset="1" stop-color="#fe7062"/>
		</linearGradient>
		<linearGradient id="g30" x2="1" gradientUnits="userSpaceOnUse" gradientTransform="matrix(276.543,39.743,-34.673,241.265,631.437,1105.821)">
			<stop offset="0" stop-color="#ff928e"/>
			<stop offset="1" stop-color="#fe7062"/>
		</linearGradient>
		<linearGradient id="g31" x2="1" gradientUnits="userSpaceOnUse" gradientTransform="matrix(120.296,-68.814,72.271,126.341,652.461,1117.781)">
			<stop offset="0" stop-color="#ff928e"/>
			<stop offset="1" stop-color="#fe7062"/>
		</linearGradient>
		<linearGradient id="g32" x2="1" gradientUnits="userSpaceOnUse" gradientTransform="matrix(168.011,-74.585,91.784,206.755,654.154,1088.802)">
			<stop offset="0" stop-color="#ff928e"/>
			<stop offset="1" stop-color="#fe7062"/>
		</linearGradient>
		<linearGradient id="g33" x2="1" gradientUnits="userSpaceOnUse" gradientTransform="matrix(99.682,-137.731,137.731,99.682,666.871,1172.72)">
			<stop offset="0" stop-color="#ff928e"/>
			<stop offset="1" stop-color="#fe7062"/>
		</linearGradient>
		<linearGradient id="g34" x2="1" gradientUnits="userSpaceOnUse" gradientTransform="matrix(163.471,-225.869,195.09,141.195,660.811,1120.224)">
			<stop offset="0" stop-color="#ff928e"/>
			<stop offset="1" stop-color="#fe7062"/>
		</linearGradient>
		<linearGradient id="g35" x2="1" gradientUnits="userSpaceOnUse" gradientTransform="matrix(-43.636,164.324,-164.324,-43.636,594.649,1040.825)">
			<stop offset="0" stop-color="#ff928e"/>
			<stop offset="1" stop-color="#fe7062"/>
		</linearGradient>
		<linearGradient id="g36" x2="1" gradientUnits="userSpaceOnUse" gradientTransform="matrix(-71.306,268.52,-222.704,-59.139,619.616,1087.636)">
			<stop offset="0" stop-color="#ff928e"/>
			<stop offset="1" stop-color="#fe7062"/>
		</linearGradient>
		<linearGradient id="g37" x2="1" gradientUnits="userSpaceOnUse" gradientTransform="matrix(-124.071,-116.244,116.244,-124.071,723.332,1069.24)">
			<stop offset="0" stop-color="#ff928e"/>
			<stop offset="1" stop-color="#fe7062"/>
		</linearGradient>
		<linearGradient id="g38" x2="1" gradientUnits="userSpaceOnUse" gradientTransform="matrix(-203.102,-190.288,161.026,-171.869,670.386,1068.851)">
			<stop offset="0" stop-color="#ff928e"/>
			<stop offset="1" stop-color="#fe7062"/>
		</linearGradient>
		<linearGradient id="g39" x2="1" gradientUnits="userSpaceOnUse" gradientTransform="matrix(-99.583,-106.399,119.568,-111.908,688.134,1086.286)">
			<stop offset="0" stop-color="#ff928e"/>
			<stop offset="1" stop-color="#fe7062"/>
		</linearGradient>
		<linearGradient id="g40" x2="1" gradientUnits="userSpaceOnUse" gradientTransform="matrix(-163.015,-174.173,177.858,-166.464,642.803,1088.955)">
			<stop offset="0" stop-color="#ff928e"/>
			<stop offset="1" stop-color="#fe7062"/>
		</linearGradient>
		<linearGradient id="g41" x2="1" gradientUnits="userSpaceOnUse" gradientTransform="matrix(-135.761,65.025,-71.502,-149.283,646.825,1072.807)">
			<stop offset="0" stop-color="#ff928e"/>
			<stop offset="1" stop-color="#fe7062"/>
		</linearGradient>
		<linearGradient id="g42" x2="1" gradientUnits="userSpaceOnUse" gradientTransform="matrix(-181.388,58.221,-80.241,-249.99,647.323,1102.223)">
			<stop offset="0" stop-color="#ff928e"/>
			<stop offset="1" stop-color="#fe7062"/>
		</linearGradient>
		<linearGradient id="g43" x2="1" gradientUnits="userSpaceOnUse" gradientTransform="matrix(-8.814,-169.79,169.789,-8.814,695.312,1149.538)">
			<stop offset="0" stop-color="#ff928e"/>
			<stop offset="1" stop-color="#fe7062"/>
		</linearGradient>
		<linearGradient id="g44" x2="1" gradientUnits="userSpaceOnUse" gradientTransform="matrix(-14.873,-286.52,244.303,-12.682,655.604,1110.435)">
			<stop offset="0" stop-color="#ff928e"/>
			<stop offset="1" stop-color="#fe7062"/>
		</linearGradient>
		<linearGradient id="g45" x2="1" gradientUnits="userSpaceOnUse" gradientTransform="matrix(-159.576,58.664,-58.664,-159.576,660.689,1015.06)">
			<stop offset="0" stop-color="#ff928e"/>
			<stop offset="1" stop-color="#fe7062"/>
		</linearGradient>
		<linearGradient id="g46" x2="1" gradientUnits="userSpaceOnUse" gradientTransform="matrix(-263.134,96.734,-84.941,-231.055,635.996,1061.458)">
			<stop offset="0" stop-color="#ff928e"/>
			<stop offset="1" stop-color="#fe7062"/>
		</linearGradient>
		<linearGradient id="g47" x2="1" gradientUnits="userSpaceOnUse" gradientTransform="matrix(155.94,-67.742,67.742,155.94,633.326,1168.804)">
			<stop offset="0" stop-color="#ff928e"/>
			<stop offset="1" stop-color="#fe7062"/>
		</linearGradient>
		<linearGradient id="g48" x2="1" gradientUnits="userSpaceOnUse" gradientTransform="matrix(255.757,-111.103,96.075,221.162,654.862,1120.553)">
			<stop offset="0" stop-color="#ff928e"/>
			<stop offset="1" stop-color="#fe7062"/>
		</linearGradient>
		<linearGradient id="g49" x2="1" gradientUnits="userSpaceOnUse" gradientTransform="matrix(-149.4,-42.793,42.793,-149.4,2474.444,1153.012)">
			<stop offset="0" stop-color="#ff928e"/>
			<stop offset="1" stop-color="#fe7062"/>
		</linearGradient>
		<linearGradient id="g50" x2="1" gradientUnits="userSpaceOnUse" gradientTransform="matrix(-246.352,-70.564,61.957,-216.305,2431.193,1173.931)">
			<stop offset="0" stop-color="#ff928e"/>
			<stop offset="1" stop-color="#fe7062"/>
		</linearGradient>
		<linearGradient id="g51" x2="1" gradientUnits="userSpaceOnUse" gradientTransform="matrix(113.191,106.489,-106.489,113.191,2368.392,1218.612)">
			<stop offset="0" stop-color="#ff928e"/>
			<stop offset="1" stop-color="#fe7062"/>
		</linearGradient>
		<linearGradient id="g52" x2="1" gradientUnits="userSpaceOnUse" gradientTransform="matrix(186.643,175.592,-154.174,163.878,2416.421,1219.835)">
			<stop offset="0" stop-color="#ff928e"/>
			<stop offset="1" stop-color="#fe7062"/>
		</linearGradient>
		<linearGradient id="g53" x2="1" gradientUnits="userSpaceOnUse" gradientTransform="matrix(-46.943,-148.149,148.149,-46.943,2498.715,1231.017)">
			<stop offset="0" stop-color="#ff928e"/>
			<stop offset="1" stop-color="#fe7062"/>
		</linearGradient>
		<linearGradient id="g54" x2="1" gradientUnits="userSpaceOnUse" gradientTransform="matrix(-77.407,-244.291,214.509,-67.97,2457.373,1206.542)">
			<stop offset="0" stop-color="#ff928e"/>
			<stop offset="1" stop-color="#fe7062"/>
		</linearGradient>
		<linearGradient id="g55" x2="1" gradientUnits="userSpaceOnUse" gradientTransform="matrix(18.285,188.336,-188.336,18.285,2465.336,702.603)">
			<stop offset="0" stop-color="#e1473d"/>
			<stop offset="1" stop-color="#e9605a"/>
		</linearGradient>
		<linearGradient id="g56" x2="1" gradientUnits="userSpaceOnUse" gradientTransform="matrix(-56.27,144.864,-144.864,-56.27,2398.87,1240.974)">
			<stop offset="0" stop-color="#ff928e"/>
			<stop offset="1" stop-color="#fe7062"/>
		</linearGradient>
		<linearGradient id="g57" x2="1" gradientUnits="userSpaceOnUse" gradientTransform="matrix(-56.27,144.864,-144.864,-56.27,2441.797,1251.042)">
			<stop offset="0" stop-color="#ff928e"/>
			<stop offset="1" stop-color="#fe7062"/>
		</linearGradient>
		<linearGradient id="g58" x2="1" gradientUnits="userSpaceOnUse" gradientTransform="matrix(-56.27,144.864,-144.864,-56.27,2420.978,1196.956)">
			<stop offset="0" stop-color="#ff928e"/>
			<stop offset="1" stop-color="#fe7062"/>
		</linearGradient>
		<linearGradient id="g59" x2="1" gradientUnits="userSpaceOnUse" gradientTransform="matrix(-56.27,144.864,-144.864,-56.27,2476.892,1215.594)">
			<stop offset="0" stop-color="#ff928e"/>
			<stop offset="1" stop-color="#fe7062"/>
		</linearGradient>
		<linearGradient id="g60" x2="1" gradientUnits="userSpaceOnUse" gradientTransform="matrix(-56.27,144.865,-144.864,-56.27,2450.224,1286.522)">
			<stop offset="0" stop-color="#ff928e"/>
			<stop offset="1" stop-color="#fe7062"/>
		</linearGradient>
		<linearGradient id="g61" x2="1" gradientUnits="userSpaceOnUse" gradientTransform="matrix(-56.27,144.864,-144.864,-56.27,2392.525,1286.522)">
			<stop offset="0" stop-color="#ff928e"/>
			<stop offset="1" stop-color="#fe7062"/>
		</linearGradient>
		<linearGradient id="g62" x2="1" gradientUnits="userSpaceOnUse" gradientTransform="matrix(-92.415,124.945,-124.945,-92.415,2412.439,1144.026)">
			<stop offset="0" stop-color="#ff928e"/>
			<stop offset="1" stop-color="#fe7062"/>
		</linearGradient>
		<linearGradient id="g63" x2="1" gradientUnits="userSpaceOnUse" gradientTransform="matrix(-152.388,206.028,-180.909,-133.809,2416.881,1191.863)">
			<stop offset="0" stop-color="#ff928e"/>
			<stop offset="1" stop-color="#fe7062"/>
		</linearGradient>
		<linearGradient id="g64" x2="1" gradientUnits="userSpaceOnUse" gradientTransform="matrix(64.97,141.176,-141.176,64.971,2371.22,1187.404)">
			<stop offset="0" stop-color="#ff928e"/>
			<stop offset="1" stop-color="#fe7062"/>
		</linearGradient>
		<linearGradient id="g65" x2="1" gradientUnits="userSpaceOnUse" gradientTransform="matrix(106.052,230.444,-187.714,86.387,2416.178,1205.748)">
			<stop offset="0" stop-color="#ff928e"/>
			<stop offset="1" stop-color="#fe7062"/>
		</linearGradient>
		<linearGradient id="g66" x2="1" gradientUnits="userSpaceOnUse" gradientTransform="matrix(29.718,127.401,-144.755,33.766,2412.067,1199.032)">
			<stop offset="0" stop-color="#ff928e"/>
			<stop offset="1" stop-color="#fe7062"/>
		</linearGradient>
		<linearGradient id="g67" x2="1" gradientUnits="userSpaceOnUse" gradientTransform="matrix(48.509,207.956,-208.058,48.532,2449.123,1216.461)">
			<stop offset="0" stop-color="#ff928e"/>
			<stop offset="1" stop-color="#fe7062"/>
		</linearGradient>
		<linearGradient id="g68" x2="1" gradientUnits="userSpaceOnUse" gradientTransform="matrix(115.178,74.053,-81.699,127.07,2389.768,1226.344)">
			<stop offset="0" stop-color="#ff928e"/>
			<stop offset="1" stop-color="#fe7062"/>
		</linearGradient>
		<linearGradient id="g69" x2="1" gradientUnits="userSpaceOnUse" gradientTransform="matrix(149.149,115.08,-135.164,175.18,2418.143,1212.291)">
			<stop offset="0" stop-color="#ff928e"/>
			<stop offset="1" stop-color="#fe7062"/>
		</linearGradient>
		<linearGradient id="g70" x2="1" gradientUnits="userSpaceOnUse" gradientTransform="matrix(153.829,22.107,-22.107,153.829,2376.226,1250.413)">
			<stop offset="0" stop-color="#ff928e"/>
			<stop offset="1" stop-color="#fe7062"/>
		</linearGradient>
		<linearGradient id="g71" x2="1" gradientUnits="userSpaceOnUse" gradientTransform="matrix(252.779,36.327,-31.693,220.533,2416.166,1223.429)">
			<stop offset="0" stop-color="#ff928e"/>
			<stop offset="1" stop-color="#fe7062"/>
		</linearGradient>
		<linearGradient id="g72" x2="1" gradientUnits="userSpaceOnUse" gradientTransform="matrix(109.959,-62.901,66.061,115.485,2435.384,1234.362)">
			<stop offset="0" stop-color="#ff928e"/>
			<stop offset="1" stop-color="#fe7062"/>
		</linearGradient>
		<linearGradient id="g73" x2="1" gradientUnits="userSpaceOnUse" gradientTransform="matrix(153.574,-68.176,83.897,188.988,2436.931,1207.873)">
			<stop offset="0" stop-color="#ff928e"/>
			<stop offset="1" stop-color="#fe7062"/>
		</linearGradient>
		<linearGradient id="g74" x2="1" gradientUnits="userSpaceOnUse" gradientTransform="matrix(91.116,-125.896,125.896,91.116,2448.555,1284.58)">
			<stop offset="0" stop-color="#ff928e"/>
			<stop offset="1" stop-color="#fe7062"/>
		</linearGradient>
		<linearGradient id="g75" x2="1" gradientUnits="userSpaceOnUse" gradientTransform="matrix(149.424,-206.46,178.326,129.062,2443.017,1236.595)">
			<stop offset="0" stop-color="#ff928e"/>
			<stop offset="1" stop-color="#fe7062"/>
		</linearGradient>
		<linearGradient id="g76" x2="1" gradientUnits="userSpaceOnUse" gradientTransform="matrix(-39.886,150.202,-150.202,-39.886,2382.54,1164.019)">
			<stop offset="0" stop-color="#ff928e"/>
			<stop offset="1" stop-color="#fe7062"/>
		</linearGradient>
		<linearGradient id="g77" x2="1" gradientUnits="userSpaceOnUse" gradientTransform="matrix(-65.178,245.446,-203.567,-54.057,2405.362,1206.807)">
			<stop offset="0" stop-color="#ff928e"/>
			<stop offset="1" stop-color="#fe7062"/>
		</linearGradient>
		<linearGradient id="g78" x2="1" gradientUnits="userSpaceOnUse" gradientTransform="matrix(-113.41,-106.255,106.255,-113.41,2500.165,1189.992)">
			<stop offset="0" stop-color="#ff928e"/>
			<stop offset="1" stop-color="#fe7062"/>
		</linearGradient>
		<linearGradient id="g79" x2="1" gradientUnits="userSpaceOnUse" gradientTransform="matrix(-185.649,-173.937,147.189,-157.101,2451.769,1189.636)">
			<stop offset="0" stop-color="#ff928e"/>
			<stop offset="1" stop-color="#fe7062"/>
		</linearGradient>
		<linearGradient id="g80" x2="1" gradientUnits="userSpaceOnUse" gradientTransform="matrix(-91.026,-97.256,109.294,-102.292,2467.992,1205.573)">
			<stop offset="0" stop-color="#ff928e"/>
			<stop offset="1" stop-color="#fe7062"/>
		</linearGradient>
		<linearGradient id="g81" x2="1" gradientUnits="userSpaceOnUse" gradientTransform="matrix(-149.007,-159.206,162.575,-152.16,2426.556,1208.013)">
			<stop offset="0" stop-color="#ff928e"/>
			<stop offset="1" stop-color="#fe7062"/>
		</linearGradient>
		<linearGradient id="g82" x2="1" gradientUnits="userSpaceOnUse" gradientTransform="matrix(-124.095,59.437,-65.357,-136.455,2430.232,1193.252)">
			<stop offset="0" stop-color="#ff928e"/>
			<stop offset="1" stop-color="#fe7062"/>
		</linearGradient>
		<linearGradient id="g83" x2="1" gradientUnits="userSpaceOnUse" gradientTransform="matrix(-165.801,53.218,-73.346,-228.509,2430.688,1220.14)">
			<stop offset="0" stop-color="#ff928e"/>
			<stop offset="1" stop-color="#fe7062"/>
		</linearGradient>
		<linearGradient id="g84" x2="1" gradientUnits="userSpaceOnUse" gradientTransform="matrix(-8.056,-155.199,155.199,-8.056,2474.553,1263.39)">
			<stop offset="0" stop-color="#ff928e"/>
			<stop offset="1" stop-color="#fe7062"/>
		</linearGradient>
		<linearGradient id="g85" x2="1" gradientUnits="userSpaceOnUse" gradientTransform="matrix(-13.595,-261.899,223.311,-11.592,2438.257,1227.647)">
			<stop offset="0" stop-color="#ff928e"/>
			<stop offset="1" stop-color="#fe7062"/>
		</linearGradient>
		<linearGradient id="g86" x2="1" gradientUnits="userSpaceOnUse" gradientTransform="matrix(-145.864,53.623,-53.623,-145.864,2442.905,1140.468)">
			<stop offset="0" stop-color="#ff928e"/>
			<stop offset="1" stop-color="#fe7062"/>
		</linearGradient>
		<linearGradient id="g87" x2="1" gradientUnits="userSpaceOnUse" gradientTransform="matrix(-240.524,88.422,-77.643,-211.202,2420.334,1182.879)">
			<stop offset="0" stop-color="#ff928e"/>
			<stop offset="1" stop-color="#fe7062"/>
		</linearGradient>
		<linearGradient id="g88" x2="1" gradientUnits="userSpaceOnUse" gradientTransform="matrix(142.54,-61.921,61.921,142.54,2417.893,1281)">
			<stop offset="0" stop-color="#ff928e"/>
			<stop offset="1" stop-color="#fe7062"/>
		</linearGradient>
		<linearGradient id="g89" x2="1" gradientUnits="userSpaceOnUse" gradientTransform="matrix(233.779,-101.556,87.819,202.157,2437.579,1236.896)">
			<stop offset="0" stop-color="#ff928e"/>
			<stop offset="1" stop-color="#fe7062"/>
		</linearGradient>
		<linearGradient id="g90" x2="1" gradientUnits="userSpaceOnUse" gradientTransform="matrix(-149.401,-42.794,42.793,-149.401,1730.138,511.439)">
			<stop offset="0" stop-color="#ff928e"/>
			<stop offset="1" stop-color="#fe7062"/>
		</linearGradient>
		<linearGradient id="g91" x2="1" gradientUnits="userSpaceOnUse" gradientTransform="matrix(-246.352,-70.563,61.957,-216.304,1686.887,532.358)">
			<stop offset="0" stop-color="#ff928e"/>
			<stop offset="1" stop-color="#fe7062"/>
		</linearGradient>
		<linearGradient id="g92" x2="1" gradientUnits="userSpaceOnUse" gradientTransform="matrix(113.191,106.489,-106.488,113.19,1624.085,577.04)">
			<stop offset="0" stop-color="#ff928e"/>
			<stop offset="1" stop-color="#fe7062"/>
		</linearGradient>
		<linearGradient id="g93" x2="1" gradientUnits="userSpaceOnUse" gradientTransform="matrix(186.643,175.592,-154.175,163.878,1672.114,578.262)">
			<stop offset="0" stop-color="#ff928e"/>
			<stop offset="1" stop-color="#fe7062"/>
		</linearGradient>
		<linearGradient id="g94" x2="1" gradientUnits="userSpaceOnUse" gradientTransform="matrix(-46.943,-148.149,148.149,-46.943,1754.409,589.444)">
			<stop offset="0" stop-color="#ff928e"/>
			<stop offset="1" stop-color="#fe7062"/>
		</linearGradient>
		<linearGradient id="g95" x2="1" gradientUnits="userSpaceOnUse" gradientTransform="matrix(-77.407,-244.291,214.508,-67.97,1713.067,564.97)">
			<stop offset="0" stop-color="#ff928e"/>
			<stop offset="1" stop-color="#fe7062"/>
		</linearGradient>
		<linearGradient id="g96" x2="1" gradientUnits="userSpaceOnUse" gradientTransform="matrix(-5.165,180.788,-180.788,-5.165,1775.993,207.313)">
			<stop offset="0" stop-color="#e1473d"/>
			<stop offset="1" stop-color="#e9605a"/>
		</linearGradient>
		<linearGradient id="g97" x2="1" gradientUnits="userSpaceOnUse" gradientTransform="matrix(-56.27,144.864,-144.864,-56.27,1654.563,599.401)">
			<stop offset="0" stop-color="#ff928e"/>
			<stop offset="1" stop-color="#fe7062"/>
		</linearGradient>
		<linearGradient id="g98" x2="1" gradientUnits="userSpaceOnUse" gradientTransform="matrix(-56.27,144.864,-144.864,-56.27,1697.491,609.47)">
			<stop offset="0" stop-color="#ff928e"/>
			<stop offset="1" stop-color="#fe7062"/>
		</linearGradient>
		<linearGradient id="g99" x2="1" gradientUnits="userSpaceOnUse" gradientTransform="matrix(-56.27,144.864,-144.864,-56.27,1676.671,555.383)">
			<stop offset="0" stop-color="#ff928e"/>
			<stop offset="1" stop-color="#fe7062"/>
		</linearGradient>
		<linearGradient id="g100" x2="1" gradientUnits="userSpaceOnUse" gradientTransform="matrix(-56.27,144.864,-144.864,-56.27,1732.586,574.022)">
			<stop offset="0" stop-color="#ff928e"/>
			<stop offset="1" stop-color="#fe7062"/>
		</linearGradient>
		<linearGradient id="g101" x2="1" gradientUnits="userSpaceOnUse" gradientTransform="matrix(-56.27,144.864,-144.864,-56.27,1705.917,644.949)">
			<stop offset="0" stop-color="#ff928e"/>
			<stop offset="1" stop-color="#fe7062"/>
		</linearGradient>
		<linearGradient id="g102" x2="1" gradientUnits="userSpaceOnUse" gradientTransform="matrix(-56.27,144.864,-144.864,-56.27,1648.218,644.95)">
			<stop offset="0" stop-color="#ff928e"/>
			<stop offset="1" stop-color="#fe7062"/>
		</linearGradient>
		<linearGradient id="g103" x2="1" gradientUnits="userSpaceOnUse" gradientTransform="matrix(-92.415,124.945,-124.944,-92.415,1668.133,502.453)">
			<stop offset="0" stop-color="#ff928e"/>
			<stop offset="1" stop-color="#fe7062"/>
		</linearGradient>
		<linearGradient id="g104" x2="1" gradientUnits="userSpaceOnUse" gradientTransform="matrix(-152.388,206.028,-180.908,-133.808,1672.575,550.291)">
			<stop offset="0" stop-color="#ff928e"/>
			<stop offset="1" stop-color="#fe7062"/>
		</linearGradient>
		<linearGradient id="g105" x2="1" gradientUnits="userSpaceOnUse" gradientTransform="matrix(64.971,141.176,-141.176,64.97,1626.914,545.831)">
			<stop offset="0" stop-color="#ff928e"/>
			<stop offset="1" stop-color="#fe7062"/>
		</linearGradient>
		<linearGradient id="g106" x2="1" gradientUnits="userSpaceOnUse" gradientTransform="matrix(106.052,230.444,-187.714,86.388,1671.872,564.175)">
			<stop offset="0" stop-color="#ff928e"/>
			<stop offset="1" stop-color="#fe7062"/>
		</linearGradient>
		<linearGradient id="g107" x2="1" gradientUnits="userSpaceOnUse" gradientTransform="matrix(29.718,127.401,-144.754,33.766,1667.761,557.46)">
			<stop offset="0" stop-color="#ff928e"/>
			<stop offset="1" stop-color="#fe7062"/>
		</linearGradient>
		<linearGradient id="g108" x2="1" gradientUnits="userSpaceOnUse" gradientTransform="matrix(48.509,207.957,-208.059,48.532,1704.817,574.888)">
			<stop offset="0" stop-color="#ff928e"/>
			<stop offset="1" stop-color="#fe7062"/>
		</linearGradient>
		<linearGradient id="g109" x2="1" gradientUnits="userSpaceOnUse" gradientTransform="matrix(115.178,74.053,-81.699,127.07,1645.462,584.771)">
			<stop offset="0" stop-color="#ff928e"/>
			<stop offset="1" stop-color="#fe7062"/>
		</linearGradient>
		<linearGradient id="g110" x2="1" gradientUnits="userSpaceOnUse" gradientTransform="matrix(149.149,115.08,-135.164,175.179,1673.837,570.718)">
			<stop offset="0" stop-color="#ff928e"/>
			<stop offset="1" stop-color="#fe7062"/>
		</linearGradient>
		<linearGradient id="g111" x2="1" gradientUnits="userSpaceOnUse" gradientTransform="matrix(153.829,22.107,-22.107,153.829,1631.92,608.841)">
			<stop offset="0" stop-color="#ff928e"/>
			<stop offset="1" stop-color="#fe7062"/>
		</linearGradient>
		<linearGradient id="g112" x2="1" gradientUnits="userSpaceOnUse" gradientTransform="matrix(252.779,36.327,-31.693,220.532,1671.86,581.857)">
			<stop offset="0" stop-color="#ff928e"/>
			<stop offset="1" stop-color="#fe7062"/>
		</linearGradient>
		<linearGradient id="g113" x2="1" gradientUnits="userSpaceOnUse" gradientTransform="matrix(109.959,-62.901,66.061,115.484,1691.078,592.789)">
			<stop offset="0" stop-color="#ff928e"/>
			<stop offset="1" stop-color="#fe7062"/>
		</linearGradient>
		<linearGradient id="g114" x2="1" gradientUnits="userSpaceOnUse" gradientTransform="matrix(153.573,-68.176,83.897,188.988,1692.625,566.3)">
			<stop offset="0" stop-color="#ff928e"/>
			<stop offset="1" stop-color="#fe7062"/>
		</linearGradient>
		<linearGradient id="g115" x2="1" gradientUnits="userSpaceOnUse" gradientTransform="matrix(91.116,-125.896,125.896,91.116,1704.249,643.007)">
			<stop offset="0" stop-color="#ff928e"/>
			<stop offset="1" stop-color="#fe7062"/>
		</linearGradient>
		<linearGradient id="g116" x2="1" gradientUnits="userSpaceOnUse" gradientTransform="matrix(149.424,-206.46,178.325,129.062,1698.71,595.023)">
			<stop offset="0" stop-color="#ff928e"/>
			<stop offset="1" stop-color="#fe7062"/>
		</linearGradient>
		<linearGradient id="g117" x2="1" gradientUnits="userSpaceOnUse" gradientTransform="matrix(-39.886,150.203,-150.203,-39.887,1638.234,522.446)">
			<stop offset="0" stop-color="#ff928e"/>
			<stop offset="1" stop-color="#fe7062"/>
		</linearGradient>
		<linearGradient id="g118" x2="1" gradientUnits="userSpaceOnUse" gradientTransform="matrix(-65.178,245.446,-203.568,-54.058,1661.055,565.235)">
			<stop offset="0" stop-color="#ff928e"/>
			<stop offset="1" stop-color="#fe7062"/>
		</linearGradient>
		<linearGradient id="g119" x2="1" gradientUnits="userSpaceOnUse" gradientTransform="matrix(-113.41,-106.255,106.255,-113.41,1755.859,548.42)">
			<stop offset="0" stop-color="#ff928e"/>
			<stop offset="1" stop-color="#fe7062"/>
		</linearGradient>
		<linearGradient id="g120" x2="1" gradientUnits="userSpaceOnUse" gradientTransform="matrix(-185.649,-173.937,147.188,-157.099,1707.463,548.064)">
			<stop offset="0" stop-color="#ff928e"/>
			<stop offset="1" stop-color="#fe7062"/>
		</linearGradient>
		<linearGradient id="g121" x2="1" gradientUnits="userSpaceOnUse" gradientTransform="matrix(-91.026,-97.256,109.293,-102.291,1723.686,564.001)">
			<stop offset="0" stop-color="#ff928e"/>
			<stop offset="1" stop-color="#fe7062"/>
		</linearGradient>
		<linearGradient id="g122" x2="1" gradientUnits="userSpaceOnUse" gradientTransform="matrix(-149.007,-159.206,162.575,-152.161,1682.25,566.44)">
			<stop offset="0" stop-color="#ff928e"/>
			<stop offset="1" stop-color="#fe7062"/>
		</linearGradient>
		<linearGradient id="g123" x2="1" gradientUnits="userSpaceOnUse" gradientTransform="matrix(-124.096,59.438,-65.358,-136.456,1685.926,551.68)">
			<stop offset="0" stop-color="#ff928e"/>
			<stop offset="1" stop-color="#fe7062"/>
		</linearGradient>
		<linearGradient id="g124" x2="1" gradientUnits="userSpaceOnUse" gradientTransform="matrix(-165.801,53.218,-73.346,-228.509,1686.382,578.568)">
			<stop offset="0" stop-color="#ff928e"/>
			<stop offset="1" stop-color="#fe7062"/>
		</linearGradient>
		<linearGradient id="g125" x2="1" gradientUnits="userSpaceOnUse" gradientTransform="matrix(-8.056,-155.2,155.2,-8.056,1730.247,621.817)">
			<stop offset="0" stop-color="#ff928e"/>
			<stop offset="1" stop-color="#fe7062"/>
		</linearGradient>
		<linearGradient id="g126" x2="1" gradientUnits="userSpaceOnUse" gradientTransform="matrix(-13.595,-261.899,223.31,-11.592,1693.951,586.074)">
			<stop offset="0" stop-color="#ff928e"/>
			<stop offset="1" stop-color="#fe7062"/>
		</linearGradient>
		<linearGradient id="g127" x2="1" gradientUnits="userSpaceOnUse" gradientTransform="matrix(-145.865,53.623,-53.623,-145.865,1698.599,498.895)">
			<stop offset="0" stop-color="#ff928e"/>
			<stop offset="1" stop-color="#fe7062"/>
		</linearGradient>
		<linearGradient id="g128" x2="1" gradientUnits="userSpaceOnUse" gradientTransform="matrix(-240.523,88.422,-77.642,-211.201,1676.028,541.306)">
			<stop offset="0" stop-color="#ff928e"/>
			<stop offset="1" stop-color="#fe7062"/>
		</linearGradient>
		<linearGradient id="g129" x2="1" gradientUnits="userSpaceOnUse" gradientTransform="matrix(142.54,-61.921,61.921,142.54,1673.587,639.428)">
			<stop offset="0" stop-color="#ff928e"/>
			<stop offset="1" stop-color="#fe7062"/>
		</linearGradient>
		<linearGradient id="g130" x2="1" gradientUnits="userSpaceOnUse" gradientTransform="matrix(233.78,-101.556,87.819,202.158,1693.273,595.323)">
			<stop offset="0" stop-color="#ff928e"/>
			<stop offset="1" stop-color="#fe7062"/>
		</linearGradient>
		<linearGradient id="g131" x2="1" gradientUnits="userSpaceOnUse" gradientTransform="matrix(1226.882,1398.449,-1417.7,1243.771,477.855,850.163)">
			<stop offset="0" stop-color="#09005d"/>
			<stop offset="1" stop-color="#1a0f91"/>
		</linearGradient>
		<linearGradient id="g132" x2="1" gradientUnits="userSpaceOnUse" gradientTransform="matrix(-338.752,163.106,-211.897,-440.086,1328.163,623.958)">
			<stop offset="0" stop-color="#ff928e"/>
			<stop offset="1" stop-color="#fe7062"/>
		</linearGradient>
		<linearGradient id="g133" x2="1" gradientUnits="userSpaceOnUse" gradientTransform="matrix(-204.2,98.32,-187.756,-389.948,1226.985,667.972)">
			<stop offset="0" stop-color="#ff928e"/>
			<stop offset="1" stop-color="#fe7062"/>
		</linearGradient>
		<linearGradient id="g134" x2="1" gradientUnits="userSpaceOnUse" gradientTransform="matrix(-47.823,0,0,-46.082,1160.508,897.353)">
			<stop offset="0" stop-color="#febbba"/>
			<stop offset="1" stop-color="#ff928e"/>
		</linearGradient>
	</defs>
	<style>
		.s0 { fill: #ffffff } 
		.s1 { fill: url(#g1) } 
		.s2 { fill: #91b3fa } 
		.s3 { fill: #bdd0fb } 
		.s4 { mix-blend-mode: overlay;fill: #ffffff } 
		.s5 { fill: url(#g2) } 
		.s6 { fill: url(#g3) } 
		.s7 { fill: #7d97f4 } 
		.s8 { fill: url(#g4) } 
		.s9 { fill: url(#g5) } 
		.s10 { fill: url(#g6) } 
		.s11 { fill: url(#g7) } 
		.s12 { opacity: .7;fill: #ffffff } 
		.s13 { fill: url(#g8) } 
		.s14 { fill: url(#g9) } 
		.s15 { fill: url(#g10) } 
		.s16 { fill: url(#g11) } 
		.s17 { fill: url(#g12) } 
		.s18 { fill: url(#g13) } 
		.s19 { fill: url(#g14) } 
		.s20 { fill: url(#g15) } 
		.s21 { fill: url(#g16) } 
		.s22 { fill: url(#g17) } 
		.s23 { fill: url(#g18) } 
		.s24 { fill: url(#g19) } 
		.s25 { fill: url(#g20) } 
		.s26 { fill: url(#g21) } 
		.s27 { fill: url(#g22) } 
		.s28 { fill: url(#g23) } 
		.s29 { fill: url(#g24) } 
		.s30 { fill: url(#g25) } 
		.s31 { fill: url(#g26) } 
		.s32 { fill: url(#g27) } 
		.s33 { fill: url(#g28) } 
		.s34 { fill: url(#g29) } 
		.s35 { fill: url(#g30) } 
		.s36 { fill: url(#g31) } 
		.s37 { fill: url(#g32) } 
		.s38 { fill: url(#g33) } 
		.s39 { fill: url(#g34) } 
		.s40 { fill: url(#g35) } 
		.s41 { fill: url(#g36) } 
		.s42 { fill: url(#g37) } 
		.s43 { fill: url(#g38) } 
		.s44 { fill: url(#g39) } 
		.s45 { fill: url(#g40) } 
		.s46 { fill: url(#g41) } 
		.s47 { fill: url(#g42) } 
		.s48 { fill: url(#g43) } 
		.s49 { fill: url(#g44) } 
		.s50 { fill: url(#g45) } 
		.s51 { fill: url(#g46) } 
		.s52 { fill: url(#g47) } 
		.s53 { fill: url(#g48) } 
		.s54 { fill: url(#g49) } 
		.s55 { fill: url(#g50) } 
		.s56 { fill: url(#g51) } 
		.s57 { fill: url(#g52) } 
		.s58 { fill: url(#g53) } 
		.s59 { fill: url(#g54) } 
		.s60 { fill: url(#g55) } 
		.s61 { fill: url(#g56) } 
		.s62 { fill: url(#g57) } 
		.s63 { fill: url(#g58) } 
		.s64 { fill: url(#g59) } 
		.s65 { fill: url(#g60) } 
		.s66 { fill: url(#g61) } 
		.s67 { fill: url(#g62) } 
		.s68 { fill: url(#g63) } 
		.s69 { fill: url(#g64) } 
		.s70 { fill: url(#g65) } 
		.s71 { fill: url(#g66) } 
		.s72 { fill: url(#g67) } 
		.s73 { fill: url(#g68) } 
		.s74 { fill: url(#g69) } 
		.s75 { fill: url(#g70) } 
		.s76 { fill: url(#g71) } 
		.s77 { fill: url(#g72) } 
		.s78 { fill: url(#g73) } 
		.s79 { fill: url(#g74) } 
		.s80 { fill: url(#g75) } 
		.s81 { fill: url(#g76) } 
		.s82 { fill: url(#g77) } 
		.s83 { fill: url(#g78) } 
		.s84 { fill: url(#g79) } 
		.s85 { fill: url(#g80) } 
		.s86 { fill: url(#g81) } 
		.s87 { fill: url(#g82) } 
		.s88 { fill: url(#g83) } 
		.s89 { fill: url(#g84) } 
		.s90 { fill: url(#g85) } 
		.s91 { fill: url(#g86) } 
		.s92 { fill: url(#g87) } 
		.s93 { fill: url(#g88) } 
		.s94 { fill: url(#g89) } 
		.s95 { fill: url(#g90) } 
		.s96 { fill: url(#g91) } 
		.s97 { fill: url(#g92) } 
		.s98 { fill: url(#g93) } 
		.s99 { fill: url(#g94) } 
		.s100 { fill: url(#g95) } 
		.s101 { fill: url(#g96) } 
		.s102 { fill: url(#g97) } 
		.s103 { fill: url(#g98) } 
		.s104 { fill: url(#g99) } 
		.s105 { fill: url(#g100) } 
		.s106 { fill: url(#g101) } 
		.s107 { fill: url(#g102) } 
		.s108 { fill: url(#g103) } 
		.s109 { fill: url(#g104) } 
		.s110 { fill: url(#g105) } 
		.s111 { fill: url(#g106) } 
		.s112 { fill: url(#g107) } 
		.s113 { fill: url(#g108) } 
		.s114 { fill: url(#g109) } 
		.s115 { fill: url(#g110) } 
		.s116 { fill: url(#g111) } 
		.s117 { fill: url(#g112) } 
		.s118 { fill: url(#g113) } 
		.s119 { fill: url(#g114) } 
		.s120 { fill: url(#g115) } 
		.s121 { fill: url(#g116) } 
		.s122 { fill: url(#g117) } 
		.s123 { fill: url(#g118) } 
		.s124 { fill: url(#g119) } 
		.s125 { fill: url(#g120) } 
		.s126 { fill: url(#g121) } 
		.s127 { fill: url(#g122) } 
		.s128 { fill: url(#g123) } 
		.s129 { fill: url(#g124) } 
		.s130 { fill: url(#g125) } 
		.s131 { fill: url(#g126) } 
		.s132 { fill: url(#g127) } 
		.s133 { fill: url(#g128) } 
		.s134 { fill: url(#g129) } 
		.s135 { fill: url(#g130) } 
		.s136 { fill: url(#g131) } 
		.s137 { opacity: .19;fill: #ffffff } 
		.s138 { opacity: .78;fill: #ffffff } 
		.s139 { fill: url(#g132) } 
		.s140 { fill: url(#g133) } 
		.s141 { fill: url(#g134) } 
	</style>
	<g id="_Artboards_">
	</g>
	<g id="Background">
		<g id="&lt;Group&gt;">
			<g id="&lt;Group&gt;">
				<path id="&lt;Path&gt;" class="s0" d="m-1150 5720h-3710v-3710h3710z"/>
			</g>
		</g>
	</g>
	<g id="Illustration">
		<g id="&lt;Group&gt;">
			<path id="&lt;Path&gt;" class="s1" d="m3122.4 2350.9c-280.1 654.7-1019.3 935.9-1598.5 887.9-158.2-13.1-476.4-39.4-724.8-274.4-477.1-451.3-403.6-1394.6 53.1-1949.9 58.8-71.5 466-550.7 1100.4-544.3 464.5 4.7 790.6 267.1 830.2 299.8 50.1 41.3 160.5 139.5 260.1 295.2 233.9 365.8 254.5 876.6 79.5 1285.7z"/>
			<g id="&lt;Group&gt;">
				<g id="&lt;Group&gt;">
					<g id="&lt;Group&gt;">
						<path id="&lt;Path&gt;" class="s2" d="m2495.8 511.7c-1.1 0-2.3-0.6-2.9-1.6-0.9-1.6-0.4-3.7 1.2-4.6 3.9-2.3 7.8-4.5 11.8-6.6 1.6-0.9 3.7-0.3 4.5 1.3 0.9 1.7 0.3 3.7-1.3 4.6-3.9 2.1-7.8 4.2-11.6 6.5-0.5 0.3-1.1 0.4-1.7 0.4z"/>
						<path id="&lt;Compound Path&gt;" class="s2" d="m2994.4 864.8q-0.3 0-0.6-0.1c-1.9-0.3-3-2.1-2.7-3.9 1.7-8.4 3-17.1 4-25.6 0.2-1.8 1.9-3.1 3.7-2.9 1.8 0.2 3.1 1.9 2.9 3.7-1 8.7-2.3 17.5-4 26.1-0.3 1.6-1.7 2.7-3.3 2.7zm6.2-68.3c-1.9 0-3.4-1.5-3.4-3.3-0.1-8.6-0.6-17.3-1.3-25.9-0.2-1.8 1.1-3.4 3-3.6 1.9-0.1 3.5 1.2 3.6 3 0.8 8.8 1.3 17.7 1.4 26.4 0 1.9-1.4 3.4-3.3 3.4q0 0 0 0zm-7.9-68.1c-1.6 0-2.9-1.1-3.3-2.6-1.8-8.5-4-16.9-6.5-25.1-0.6-1.8 0.4-3.6 2.2-4.2 1.8-0.5 3.7 0.5 4.2 2.3 2.5 8.3 4.8 16.9 6.7 25.5 0.4 1.8-0.8 3.6-2.6 4q-0.4 0.1-0.7 0.1zm-21.5-65.1c-1.3 0-2.5-0.7-3-2-3.5-7.8-7.4-15.6-11.6-23.2-0.8-1.6-0.2-3.6 1.4-4.5 1.6-0.9 3.6-0.3 4.5 1.3 4.2 7.7 8.2 15.7 11.8 23.7 0.7 1.7 0 3.6-1.7 4.4q-0.7 0.3-1.4 0.3zm-34.3-59.3c-1 0-2.1-0.5-2.7-1.4-5.1-7-10.5-13.8-16-20.3-1.2-1.5-1.1-3.6 0.3-4.8 1.4-1.2 3.6-1 4.8 0.4 5.7 6.7 11.2 13.7 16.3 20.8 1.1 1.5 0.8 3.6-0.7 4.6-0.6 0.5-1.3 0.7-2 0.7zm-45.7-51.1c-0.8 0-1.6-0.3-2.3-0.9-6.3-5.7-13-11.3-19.8-16.6-1.5-1.2-1.7-3.3-0.6-4.7 1.1-1.5 3.2-1.8 4.7-0.6 6.9 5.4 13.7 11.1 20.2 17 1.4 1.2 1.5 3.4 0.3 4.7-0.7 0.8-1.6 1.1-2.5 1.1zm-55.2-40.7c-0.6 0-1.1-0.2-1.7-0.5-7.4-4.4-15.1-8.5-22.8-12.3-1.6-0.8-2.3-2.8-1.5-4.5 0.8-1.6 2.8-2.3 4.5-1.5 7.9 3.9 15.7 8.1 23.2 12.6 1.6 0.9 2.1 3 1.2 4.5-0.6 1.1-1.7 1.7-2.9 1.7zm-289.9-24.6c-1.3 0-2.6-0.9-3.1-2.2-0.6-1.7 0.2-3.7 2-4.3 8.1-3.1 16.6-6 25-8.4 1.8-0.6 3.6 0.5 4.2 2.2 0.5 1.8-0.5 3.7-2.3 4.2-8.3 2.4-16.5 5.2-24.6 8.2q-0.6 0.3-1.2 0.3zm227.7-4.1q-0.6 0-1.1-0.2c-8.2-2.8-16.5-5.3-24.9-7.4-1.7-0.5-2.8-2.3-2.4-4.1 0.5-1.8 2.3-2.9 4.1-2.4 8.5 2.2 17 4.7 25.3 7.5 1.8 0.6 2.7 2.6 2.1 4.3-0.5 1.4-1.8 2.3-3.1 2.3zm-161.4-13.7c-1.6 0-3-1.1-3.3-2.8-0.3-1.8 0.9-3.5 2.8-3.8 8.6-1.4 17.5-2.5 26.2-3.2 1.9-0.2 3.4 1.2 3.6 3.1 0.2 1.8-1.2 3.4-3.1 3.6-8.5 0.7-17.2 1.7-25.7 3.1q-0.2 0-0.5 0zm94.5-1.7q-0.2 0-0.4-0.1c-8.5-1-17.2-1.8-25.8-2.1-1.8-0.1-3.3-1.7-3.2-3.5 0.1-1.9 1.6-3.3 3.5-3.2 8.8 0.4 17.6 1.1 26.3 2.2 1.9 0.2 3.2 1.9 2.9 3.7-0.2 1.7-1.6 3-3.3 3z"/>
						<path id="&lt;Path&gt;" class="s2" d="m2979 918.7q-0.6 0-1.1-0.2c-1.8-0.6-2.7-2.6-2-4.3 1.6-4.1 3-8.3 4.4-12.5 0.6-1.7 2.5-2.7 4.3-2.1 1.7 0.6 2.7 2.5 2.1 4.2-1.4 4.3-3 8.6-4.5 12.8-0.5 1.3-1.8 2.1-3.2 2.1z"/>
					</g>
					<g id="&lt;Group&gt;">
						<path id="&lt;Path&gt;" class="s2" d="m2798.2 1108.2c-1.3 0-2.5-0.8-3.1-2.1-0.7-1.7 0.1-3.6 1.8-4.4 4-1.7 8-3.5 12.1-5.4 1.6-0.8 3.6-0.1 4.4 1.5 0.8 1.7 0.1 3.7-1.6 4.5-4.1 2-8.2 3.8-12.3 5.6q-0.6 0.3-1.3 0.3z"/>
						<path id="&lt;Compound Path&gt;" class="s2" d="m2666.7 1135.5c-1.8 0-3.3-1.5-3.3-3.3 0-1.9 1.5-3.4 3.3-3.4 8.5 0 17-0.4 25.5-1.1 1.8-0.1 3.4 1.2 3.6 3.1 0.1 1.8-1.2 3.4-3.1 3.6-8.6 0.7-17.3 1.1-26 1.1q0 0 0 0zm-41.7-2.4q-0.2 0-0.4-0.1c-8.6-1-17.2-2.4-25.7-4.1-1.8-0.4-3-2.1-2.6-3.9 0.3-1.9 2.1-3 3.9-2.7 8.3 1.7 16.8 3.1 25.2 4.1 1.8 0.2 3.1 1.9 2.9 3.7-0.2 1.7-1.7 3-3.3 3zm108.8-4.7c-1.5 0-2.9-1.1-3.2-2.6-0.4-1.8 0.7-3.6 2.6-4 8.2-1.7 16.6-3.8 24.7-6.1 1.8-0.5 3.6 0.5 4.1 2.3 0.6 1.7-0.5 3.6-2.2 4.1-8.3 2.4-16.8 4.5-25.3 6.3q-0.3 0-0.7 0zm-174.7-10.2q-0.5 0-1-0.2c-8.2-2.8-16.4-5.9-24.3-9.3-1.7-0.7-2.5-2.6-1.8-4.3 0.7-1.7 2.7-2.5 4.4-1.8 7.8 3.3 15.8 6.3 23.8 9 1.8 0.6 2.7 2.5 2.1 4.3-0.5 1.4-1.8 2.3-3.2 2.3zm-61.4-27.9q-0.9 0-1.7-0.4c-7.5-4.4-14.9-9-22-13.9-1.5-1.1-1.9-3.2-0.8-4.7 1-1.5 3.1-1.9 4.6-0.8 7 4.7 14.2 9.3 21.6 13.6 1.6 0.9 2.1 3 1.2 4.6-0.7 1-1.8 1.6-2.9 1.6zm-54.7-39.5c-0.8 0-1.6-0.3-2.2-0.9-6.5-5.7-12.8-11.7-18.8-17.9-1.3-1.4-1.2-3.5 0.1-4.8 1.3-1.3 3.5-1.2 4.7 0.1 5.9 6.1 12.1 12 18.4 17.6 1.4 1.3 1.5 3.4 0.3 4.8-0.7 0.7-1.6 1.1-2.5 1.1zm-45.7-49.6c-1 0-2-0.5-2.6-1.4-5.2-6.9-10.2-14.1-14.8-21.4-1-1.5-0.5-3.6 1-4.6 1.6-1 3.6-0.5 4.6 1.1 4.6 7.1 9.4 14.1 14.5 20.9 1.1 1.5 0.8 3.6-0.7 4.7-0.6 0.5-1.3 0.7-2 0.7zm-34.7-57.8c-1.3 0-2.5-0.7-3.1-2-3.6-7.8-7.1-15.8-10.1-23.9-0.7-1.7 0.2-3.6 1.9-4.3 1.8-0.7 3.7 0.2 4.4 1.9 2.9 7.9 6.3 15.8 9.9 23.5 0.8 1.7 0.1 3.7-1.6 4.5q-0.7 0.3-1.4 0.3zm-22.4-63.7c-1.6 0-2.9-1-3.3-2.5-1.6-6.8-3.1-13.6-4.3-20.4q-0.4-2.6-0.9-5.1c-0.3-1.8 1-3.5 2.8-3.8 1.8-0.3 3.6 0.9 3.9 2.7q0.4 2.5 0.8 5c1.2 6.7 2.6 13.4 4.2 20 0.5 1.8-0.6 3.6-2.4 4q-0.4 0.1-0.8 0.1zm-9.3-66.8c-1.8 0-3.3-1.4-3.4-3.2-0.2-4.3-0.2-8.6-0.2-12.9 0-4.3 0-8.8 0.2-13.1 0.1-1.9 1.7-3.4 3.5-3.2 1.8 0 3.3 1.6 3.2 3.4-0.2 4.3-0.2 8.6-0.2 12.9 0 4.2 0 8.4 0.2 12.6 0.1 1.9-1.4 3.4-3.2 3.5q-0.1 0-0.1 0zm4.2-67.3q-0.3 0-0.5-0.1c-1.9-0.3-3.1-2-2.8-3.8 1.4-8.6 3.2-17.1 5.3-25.5 0.4-1.8 2.2-2.9 4-2.4 1.8 0.4 2.9 2.2 2.5 4-2.1 8.2-3.8 16.6-5.2 25-0.3 1.6-1.7 2.8-3.3 2.8z"/>
						<path id="&lt;Path&gt;" class="s2" d="m2352.9 680.3q-0.6 0-1.2-0.2c-1.7-0.7-2.6-2.6-1.9-4.3 1.6-4.2 3.3-8.4 5.1-12.6 0.8-1.7 2.7-2.4 4.4-1.7 1.7 0.7 2.5 2.7 1.8 4.4-1.8 4.1-3.5 8.2-5 12.3-0.6 1.3-1.8 2.1-3.2 2.1z"/>
					</g>
					<g id="&lt;Group&gt;">
						<path id="&lt;Compound Path&gt;" class="s2" d="m2444 666.3c-1 1.4-1 3.3-0.1 4.7l27.6 40.4c-9.1 21-14.9 43.5-16.9 67l-43.5 22.4c-1.5 0.8-2.3 2.5-2.1 4.2l8.5 58.1c0.2 1.7 1.5 3 3.2 3.3l48.1 9.1c8.6 21.9 20.6 41.8 35.4 59.3l-14.9 46.6c-0.5 1.7 0.1 3.4 1.5 4.5l47 35c1.4 1 3.3 1.1 4.7 0.1l40.4-27.5c21 9.1 43.5 14.9 66.9 16.9l22.5 43.4c0.8 1.6 2.5 2.4 4.2 2.2l58-8.5c1.7-0.3 3.1-1.6 3.4-3.3l9.1-48c21.9-8.6 41.8-20.7 59.3-35.4l46.6 14.8c1.6 0.6 3.4 0 4.4-1.4l35.1-47c1-1.4 1.1-3.3 0.1-4.7l-27.6-40.4c9.1-21 15-43.5 17-67l43.4-22.4c1.5-0.8 2.4-2.5 2.1-4.2l-8.5-58.1c-0.2-1.7-1.5-3-3.2-3.3l-48-9.1c-8.7-21.9-20.7-41.8-35.4-59.3l14.8-46.6c0.5-1.7 0-3.4-1.4-4.5l-47.1-35c-1.4-1-3.2-1.1-4.6-0.1l-40.5 27.5c-20.9-9.1-43.5-14.9-66.9-16.9l-22.5-43.4c-0.8-1.6-2.4-2.4-4.1-2.2l-58.1 8.5c-1.7 0.3-3 1.6-3.4 3.3l-9 48c-21.9 8.6-41.9 20.7-59.3 35.4l-46.7-14.8c-1.6-0.6-3.4 0-4.4 1.4z"/>
						<g id="&lt;Group&gt;">
							<path id="&lt;Compound Path&gt;" fill-rule="evenodd" class="s3" d="m2668.2 852.2c-7.2 0-14.4-1.4-21.2-4.2-13.7-5.7-24.4-16.4-30-30-5.7-13.7-5.7-28.8 0-42.5 5.7-13.7 16.3-24.3 30-30 28.3-11.7 60.8 1.8 72.5 30 11.7 28.3-1.8 60.8-30.1 72.5-6.8 2.8-14 4.2-21.2 4.2zm0-104.2c-6.2 0-12.6 1.2-18.6 3.7-12.1 5-21.4 14.3-26.4 26.4-5 12-5 25.3 0 37.3 4.9 12 14.3 21.4 26.3 26.4 12.1 5 25.3 5 37.4 0 24.8-10.3 36.7-38.9 26.4-63.7-7.8-18.8-26-30.1-45.1-30.1z"/>
						</g>
						<path id="&lt;Path&gt;" class="s3" d="m2669 942.4c-31 0-61-9.9-86.3-28.7-31.1-23.2-51.3-57-56.9-95.3-1-7-1.5-14.1-1.5-21.2q0-4.8 0.3-9.7c0.1-1.8 1.7-3.2 3.6-3.1 1.8 0.1 3.1 1.6 3.1 3.4q0 0.1 0 0.2-0.3 4.6-0.3 9.2c0 6.8 0.5 13.5 1.5 20.2 4.6 32 20 60.8 43.6 82.2q5.1 4.6 10.6 8.7c29.6 22 66 31.3 102.6 25.9 68.7-10 118.3-69.3 118.2-136.7q0.1-10-1.4-20.1c-11-75.4-81.4-127.8-156.8-116.8-24.8 3.6-48.1 13.9-67.4 29.7-1.5 1.1-3.6 0.9-4.7-0.5-0.6-0.6-0.8-1.4-0.8-2.1 0-1 0.4-2 1.2-2.6 20.3-16.6 44.7-27.3 70.7-31.1 79.1-11.6 152.9 43.4 164.4 122.4q1.6 10.7 1.5 21.1c0.1 70.7-51.9 132.8-124 143.3q-10.6 1.6-21.2 1.6z"/>
					</g>
				</g>
				<path id="&lt;Compound Path&gt;" class="s2" d="m2924.4 1093.6l17.2 21.3c-4.2 12.2-6.5 25-6.5 38.2l-23.3 14.5c-0.8 0.5-1.2 1.4-1 2.4l7.3 32c0.2 1 1 1.7 2 1.8l27.2 2.9c5.8 11.8 13.4 22.5 22.4 31.6l-6.2 26.7c-0.2 0.9 0.2 1.9 1 2.4l27.8 17.5c0.8 0.5 1.9 0.4 2.6-0.2l21.4-17.2c12.1 4.2 25 6.4 38.1 6.5l14.5 23.3c0.5 0.8 1.5 1.2 2.4 1l32.1-7.3c0.9-0.3 1.6-1 1.7-2l3-27.2c11.8-5.8 22.4-13.4 31.5-22.4l26.7 6.2c0.9 0.2 1.9-0.2 2.4-1l17.5-27.9c0.5-0.8 0.5-1.8-0.1-2.6l-17.2-21.3c4.1-12.1 6.4-25 6.5-38.2l23.2-14.4c0.8-0.5 1.2-1.5 1-2.4l-7.3-32.1c-0.2-0.9-1-1.6-2-1.7l-27.2-3c-5.8-11.8-13.4-22.4-22.4-31.5l6.2-26.7c0.2-1-0.2-1.9-1-2.4l-27.8-17.5c-0.8-0.5-1.9-0.5-2.6 0.1l-21.4 17.2c-12.1-4.1-24.9-6.4-38.1-6.5l-14.5-23.2c-0.5-0.9-1.5-1.3-2.4-1l-32.1 7.3c-0.9 0.2-1.6 1-1.7 1.9l-2.9 27.3c-11.9 5.7-22.5 13.4-31.6 22.4l-26.7-6.3c-0.9-0.2-1.9 0.2-2.4 1l-17.5 27.9c-0.5 0.8-0.4 1.8 0.2 2.6z"/>
				<g id="&lt;Group&gt;">
					<path id="&lt;Compound Path&gt;" fill-rule="evenodd" class="s3" d="m3055.3 1186.4c-11.9 0-23.3-6.5-29.1-17.7-3.9-7.8-4.6-16.6-2-24.9 2.7-8.2 8.5-15 16.2-18.9 7.8-4 16.6-4.7 24.8-2 8.3 2.7 15 8.4 19 16.2 8.2 16 1.8 35.6-14.2 43.8-4.7 2.4-9.8 3.5-14.7 3.5zm-0.1-58.4c-4 0-8 1-11.7 2.8-6.2 3.2-10.7 8.5-12.9 15.1-2.1 6.6-1.6 13.6 1.6 19.7 6.5 12.7 22.1 17.8 34.8 11.3 12.7-6.5 17.7-22.1 11.2-34.8-3.1-6.1-8.5-10.7-15-12.8-2.6-0.9-5.3-1.3-8-1.3z"/>
				</g>
				<g id="&lt;Group&gt;">
					<path id="&lt;Path&gt;" class="s2" d="m2925.6 1037.7c-0.8 0-1.6-0.3-2.3-0.8-1.4-1.3-1.4-3.4-0.2-4.8 3.1-3.3 6.3-6.6 9.6-9.7 1.4-1.2 3.5-1.1 4.8 0.2 1.2 1.4 1.2 3.5-0.2 4.7-3.2 3-6.3 6.1-9.3 9.4-0.6 0.7-1.5 1-2.4 1z"/>
					<path id="&lt;Compound Path&gt;" class="s2" d="m3225.4 1111c-1.5 0-2.8-1-3.3-2.5-2.3-8.7-5.4-17.2-9.1-25.5-0.8-1.7 0-3.6 1.7-4.4 1.7-0.8 3.6 0 4.4 1.7 3.8 8.5 7 17.4 9.5 26.4 0.5 1.8-0.6 3.7-2.3 4.1q-0.5 0.2-0.9 0.2zm-32.7-64.2c-1 0-1.9-0.4-2.6-1.2-5.6-7.1-11.9-13.7-18.5-19.7-1.4-1.3-1.5-3.4-0.3-4.8 1.3-1.3 3.4-1.4 4.8-0.2 6.9 6.3 13.4 13.2 19.2 20.5 1.2 1.4 0.9 3.5-0.5 4.7-0.6 0.5-1.4 0.7-2.1 0.7zm-221.3-44.6c-1.2 0-2.3-0.7-2.9-1.8-0.9-1.6-0.3-3.6 1.3-4.5q1.9-1.1 3.8-2c7.1-3.6 14.4-6.8 21.9-9.4 1.7-0.7 3.6 0.3 4.3 2 0.6 1.7-0.3 3.7-2.1 4.3-7.1 2.5-14.2 5.6-21 9q-1.9 1-3.7 2-0.8 0.4-1.6 0.4zm165.7-1.1q-0.8 0-1.5-0.4c-8-4.1-16.3-7.7-24.9-10.6-1.7-0.6-2.7-2.5-2.1-4.3 0.6-1.7 2.5-2.7 4.3-2.1 8.8 3 17.5 6.8 25.8 11.1 1.6 0.9 2.3 2.9 1.4 4.5-0.6 1.2-1.8 1.8-3 1.8zm-96.8-19.6c-1.7 0-3.1-1.3-3.3-3-0.1-1.9 1.2-3.5 3.1-3.7 4.9-0.4 10-0.6 14.9-0.6 4.3 0.1 8.8 0.2 13.2 0.5 1.8 0.1 3.2 1.7 3.1 3.6-0.2 1.8-1.8 3.2-3.6 3.1-4.2-0.3-8.4-0.5-12.6-0.5q0 0-0.1 0c-4.7 0-9.6 0.2-14.4 0.6q-0.1 0-0.3 0z"/>
					<path id="&lt;Path&gt;" class="s2" d="m3231.2 1168.8q-0.2 0-0.3 0c-1.8-0.1-3.2-1.7-3.1-3.5 0.3-4.4 0.4-8.8 0.4-13.2 0-1.8 1.5-3.3 3.3-3.3q0 0 0 0c1.9 0 3.4 1.4 3.4 3.3 0 4.5-0.1 9.1-0.4 13.6-0.1 1.8-1.6 3.1-3.3 3.1z"/>
				</g>
				<g id="&lt;Group&gt;">
					<path id="&lt;Path&gt;" class="s2" d="m3164.1 1295.9c-1 0-1.9-0.5-2.6-1.3-1.2-1.5-0.9-3.6 0.6-4.7 3.4-2.7 6.8-5.5 10-8.5 1.3-1.2 3.5-1.1 4.7 0.2 1.3 1.4 1.2 3.5-0.2 4.7-3.3 3.1-6.8 6.1-10.4 8.9-0.6 0.5-1.3 0.7-2.1 0.7z"/>
					<path id="&lt;Compound Path&gt;" class="s2" d="m3055.4 1333.5c-8.6 0-17.3-0.6-25.8-1.8-1.8-0.3-3.1-2-2.8-3.8 0.3-1.9 1.9-3.1 3.8-2.9 8.2 1.2 16.5 1.8 24.8 1.8h1.7c1.8 0 3.4 1.5 3.4 3.3 0 1.9-1.4 3.4-3.3 3.4zm45.4-6c-1.5 0-2.8-0.9-3.2-2.4-0.5-1.8 0.5-3.7 2.3-4.1 8.6-2.3 17-5.3 25.1-8.9 1.7-0.8 3.7 0 4.4 1.7 0.8 1.7 0 3.7-1.7 4.4-8.4 3.7-17.2 6.8-26 9.2q-0.5 0.1-0.9 0.1zm-113.1-7.5q-0.7 0-1.3-0.2c-8.5-3.6-16.8-7.8-24.6-12.5-1.6-1-2.1-3.1-1.2-4.6 1-1.6 3.1-2.1 4.6-1.2 7.6 4.6 15.6 8.7 23.8 12.1 1.7 0.7 2.5 2.6 1.8 4.4-0.5 1.2-1.8 2-3.1 2zm-58.6-39.6c-0.9 0-1.8-0.4-2.4-1.1-6.4-6.5-12.4-13.7-17.7-21.2-1.1-1.5-0.7-3.6 0.8-4.6 1.5-1.1 3.6-0.8 4.6 0.7 5.2 7.3 10.9 14.1 17.1 20.5 1.3 1.3 1.2 3.4-0.1 4.7-0.6 0.6-1.5 1-2.3 1zm-38.3-59.6c-1.3 0-2.6-0.8-3.1-2.2-3.3-8.6-6-17.5-8-26.4-0.4-1.8 0.8-3.6 2.6-4 1.8-0.4 3.6 0.7 4 2.5 1.9 8.7 4.5 17.2 7.7 25.5 0.6 1.7-0.2 3.7-2 4.4q-0.6 0.2-1.2 0.2z"/>
					<path id="&lt;Path&gt;" class="s2" d="m2879.1 1150.8q-0.1 0-0.2 0c-1.8-0.1-3.3-1.6-3.2-3.5 0.2-4.5 0.5-9 1-13.6 0.2-1.8 1.8-3.1 3.7-2.9 1.9 0.2 3.2 1.9 3 3.7-0.5 4.3-0.8 8.8-1 13.1-0.1 1.8-1.5 3.2-3.3 3.2z"/>
				</g>
				<path id="&lt;Path&gt;" class="s3" d="m3055.7 1236.9c-15.4 0-30.5-4.3-43.9-12.7-18.7-11.7-31.7-30.1-36.6-51.6q-0.4-2-0.8-4 0 0 0 0 0-0.1 0-0.1-1-5.8-1.2-11.7-0.1-0.5-0.1-1 0-0.4 0-0.7 0 0 0 0c0-1.9 1.5-3.4 3.3-3.4 2 0.1 3.4 1.5 3.4 3.3 0.1 5.4 0.7 10.8 1.9 16.1q0.2 0.8 0.4 1.5c4.8 19.2 16.6 35.4 33.3 45.9 17.2 10.8 37.6 14.3 57.3 9.8 19.8-4.5 36.7-16.5 47.5-33.7 7.7-12.3 11.6-26.1 11.6-40.3 0.1-5.6-0.6-11.4-1.9-17-4.5-19.8-16.5-36.7-33.6-47.5-17.2-10.8-37.6-14.2-57.4-9.7-13.4 3.1-25.7 9.7-35.6 19.2-1.4 1.3-3.5 1.2-4.8-0.1-0.6-0.7-0.9-1.5-0.9-2.3 0-0.9 0.3-1.8 1-2.5 10.8-10.3 24.2-17.5 38.8-20.8 21.6-4.9 43.7-1.2 62.4 10.6 18.7 11.7 31.7 30 36.6 51.6 1.5 6.1 2.2 12.4 2.2 18.6-0.1 15.3-4.4 30.4-12.7 43.8-11.8 18.7-30.1 31.7-51.7 36.6-6.1 1.4-12.4 2.1-18.5 2.1z"/>
			</g>
			<g id="&lt;Group&gt;">
				<path id="&lt;Path&gt;" class="s3" d="m2255.2 817.2c-0.4-19.6-19.3-35.7-42.4-35.7h-873c-23.4 0-46.4 17-46.4 36.8v1773.5c0 9.6 6.5 18.7 14.4 25.5 8 6.7 19.8 10.5 31.1 10.5l912.8-2.1c11.4-0.1 22.5-4 30.4-10.8 8-6.9 12.5-16.4 12.2-26.1z"/>
				<g id="&lt;Group&gt;" style="opacity: .5">
					<g id="&lt;Group&gt;">
						<path id="&lt;Path&gt;" class="s0" d="m1612.2 990.5l-248.7-0.3-2-108.1h249z"/>
						<path id="&lt;Path&gt;" class="s0" d="m1891 990.4l-248.4-0.2-1.7-108.1h248.7z"/>
						<path id="&lt;Path&gt;" class="s0" d="m2169.5 990.4l-248.2-0.3-1.4-108h248.4z"/>
					</g>
					<g id="&lt;Group&gt;">
						<path id="&lt;Path&gt;" class="s0" d="m1615.3 1184.5l-248.2 0.1-2-107.4h248.5z"/>
						<path id="&lt;Path&gt;" class="s0" d="m1893.6 1184.3l-248 0.2-1.7-107.3 248.3-0.1z"/>
						<g id="&lt;Group&gt;">
							<path id="&lt;Path&gt;" class="s0" d="m2171.7 1184.2l-247.8 0.1-1.5-107.2 248.1-0.1z"/>
						</g>
					</g>
					<g id="&lt;Group&gt;">
						<path id="&lt;Path&gt;" class="s0" d="m1618.4 1377.1l-247.8 0.2-2-106.9 248.1-0.2z"/>
						<path id="&lt;Path&gt;" class="s0" d="m1896.3 1376.9l-247.6 0.2-1.7-106.9 247.8-0.2z"/>
						<path id="&lt;Path&gt;" class="s0" d="m2173.8 1376.6l-247.4 0.2-1.4-106.8 247.6-0.2z"/>
					</g>
					<g id="&lt;Group&gt;">
						<path id="&lt;Path&gt;" class="s0" d="m1621.5 1569.1l-247.4 0.3-1.9-106.6 247.6-0.3z"/>
						<path id="&lt;Path&gt;" class="s0" d="m1898.9 1568.8l-247.2 0.3-1.7-106.6 247.4-0.3z"/>
						<path id="&lt;Path&gt;" class="s0" d="m2175.9 1568.4l-246.9 0.3-1.4-106.5 247.1-0.3z"/>
					</g>
					<g id="&lt;Group&gt;">
						<path id="&lt;Path&gt;" class="s0" d="m1624.6 1760.4l-247 0.4-1.9-106.3 247.2-0.3z"/>
						<path id="&lt;Path&gt;" class="s0" d="m1901.5 1760l-246.8 0.4-1.7-106.2 247-0.4z"/>
						<path id="&lt;Path&gt;" class="s0" d="m2178 1759.5l-246.5 0.4-1.4-106.1 246.8-0.4z"/>
					</g>
					<g id="&lt;Group&gt;">
						<path id="&lt;Path&gt;" class="s0" d="m1627.7 1951.1l-246.6 0.4-1.9-105.8 246.8-0.5z"/>
						<path id="&lt;Path&gt;" class="s0" d="m1904 1950.5l-246.3 0.5-1.6-105.8 246.5-0.5z"/>
						<path id="&lt;Path&gt;" class="s0" d="m2180.1 1950l-246 0.5-1.4-105.8 246.3-0.4z"/>
					</g>
					<g id="&lt;Group&gt;">
						<path id="&lt;Path&gt;" class="s0" d="m1630.7 2141.1l-246.1 0.5-1.9-105.5 246.3-0.5z"/>
						<path id="&lt;Path&gt;" class="s0" d="m1906.6 2140.4l-245.9 0.6-1.6-105.5 246.1-0.5z"/>
						<path id="&lt;Path&gt;" class="s0" d="m2182.2 2139.8l-245.6 0.6-1.4-105.5 245.9-0.5z"/>
					</g>
					<g id="&lt;Group&gt;">
						<path id="&lt;Path&gt;" class="s0" d="m1633.8 2330.4l-245.7 0.6-2-105.1 246-0.6z"/>
						<path id="&lt;Path&gt;" class="s0" d="m1909.2 2329.7l-245.5 0.6-1.6-105.1 245.7-0.6z"/>
						<path id="&lt;Path&gt;" class="s0" d="m2184.3 2329l-245.2 0.6-1.4-105 245.5-0.6z"/>
					</g>
					<g id="&lt;Group&gt;">
						<path id="&lt;Path&gt;" class="s0" d="m1636.8 2519.1l-245.3 0.7-1.9-104.8 245.5-0.7z"/>
						<path id="&lt;Path&gt;" class="s0" d="m1911.8 2518.3l-245.1 0.7-1.7-104.7 245.3-0.7z"/>
						<path id="&lt;Path&gt;" class="s0" d="m2186.4 2517.5l-244.8 0.7-1.4-104.7 245.1-0.7z"/>
					</g>
				</g>
			</g>
			<g id="&lt;Group&gt;">
				<path id="&lt;Path&gt;" class="s2" d="m3091.5 1404.9c-0.3-8.1-12.4-14.5-27.2-14.5h-899.3c-15 0-31 6.6-31 14.8v1137.5c0 6.1 6.4 11.9 14.3 16.2 8 4.3 19.7 6.7 30.9 6.7l909.1-1.3c11.3-0.1 22.4-2.5 30.3-6.9 7.9-4.4 12.4-10.3 12.2-16.5z"/>
				<g id="&lt;Group&gt;">
					<path id="&lt;Path&gt;" class="s4" d="m2575.1 1471l-294.2-0.6 0.1-19.9 293.8 0.5z"/>
					<path id="&lt;Path&gt;" class="s4" d="m2575.9 1544.5l-295.4-0.8 0.1-20.1 295 0.7z"/>
					<path id="&lt;Path&gt;" class="s4" d="m2576.7 1618.6l-296.6-1 0.1-20.2 296.2 0.8z"/>
					<path id="&lt;Path&gt;" class="s4" d="m2577.5 1693.3l-297.8-1.1 0.1-20.5 297.5 1.1z"/>
					<path id="&lt;Path&gt;" class="s4" d="m2578.3 1768.6l-299.1-1.3 0.2-20.6 298.7 1.2z"/>
					<path id="&lt;Path&gt;" class="s4" d="m2580 1921.1l-301.6-1.6 0.1-21 301.3 1.6z"/>
					<path id="&lt;Path&gt;" class="s4" d="m2582.6 2154.8l-305.5-2.2 0.1-21.5 305.1 2.2z"/>
					<path id="&lt;Path&gt;" class="s4" d="m2579.2 1844.5l-300.4-1.4 0.1-20.8 300 1.4z"/>
					<path id="&lt;Path&gt;" class="s4" d="m2580.8 1998.4l-302.8-1.9 0.1-21.1 302.5 1.8z"/>
					<path id="&lt;Path&gt;" class="s4" d="m2581.7 2076.3l-304.1-2.1 0.1-21.3 303.8 2z"/>
					<path id="&lt;Path&gt;" class="s4" d="m2583.4 2234.1l-306.7-2.5 0.1-21.7 306.4 2.4z"/>
					<path id="&lt;Path&gt;" class="s4" d="m2584.3 2314l-308-2.7 0.1-21.9 307.7 2.6z"/>
					<path id="&lt;Path&gt;" class="s4" d="m2585.2 2394.6l-309.4-2.9 0.1-22.1 309 2.9z"/>
					<path id="&lt;Path&gt;" class="s4" d="m2586.1 2475.9l-310.7-3.1 0.1-22.3 310.3 3.1z"/>
					<path id="&lt;Path&gt;" class="s4" d="m2960.7 1471.7l-296-0.5-0.3-20.1 295.7 0.5z"/>
					<path id="&lt;Path&gt;" class="s4" d="m2963.1 1545.4l-297.2-0.7-0.3-20.2 296.9 0.7z"/>
					<path id="&lt;Path&gt;" class="s4" d="m2965.6 1619.7l-298.5-0.9-0.3-20.3 298.1 0.9z"/>
					<path id="&lt;Path&gt;" class="s4" d="m2968 1694.7l-299.7-1.1-0.4-20.5 299.4 1z"/>
					<path id="&lt;Path&gt;" class="s4" d="m2970.5 1770.3l-301-1.3-0.4-20.7 300.7 1.2z"/>
					<path id="&lt;Path&gt;" class="s4" d="m2975.4 1923.3l-303.5-1.7-0.3-21 303.2 1.6z"/>
					<path id="&lt;Path&gt;" class="s4" d="m2983.1 2157.8l-307.4-2.3-0.4-21.5 307.1 2.2z"/>
					<path id="&lt;Path&gt;" class="s4" d="m2972.9 1846.5l-302.2-1.5-0.3-20.9 301.9 1.5z"/>
					<path id="&lt;Path&gt;" class="s4" d="m2978 2000.8l-304.8-1.9-0.4-21.2 304.5 1.9z"/>
					<path id="&lt;Path&gt;" class="s4" d="m2980.5 2079l-306.1-2.1-0.3-21.4 305.7 2z"/>
					<path id="&lt;Path&gt;" class="s4" d="m2985.7 2237.3l-308.8-2.5-0.3-21.7 308.4 2.4z"/>
					<path id="&lt;Path&gt;" class="s4" d="m2988.3 2317.5l-310.1-2.7-0.3-22 309.7 2.7z"/>
					<path id="&lt;Path&gt;" class="s4" d="m2990.9 2398.4l-311.4-2.9-0.4-22.2 311.1 2.9z"/>
					<path id="&lt;Path&gt;" class="s4" d="m2993.6 2480l-312.8-3.2-0.4-22.3 312.4 3.1z"/>
				</g>
			</g>
			<path id="&lt;Path&gt;" class="s5" d="m3131.6 3245h-2544.2c-67.6 0-122.4-54.8-122.4-122.4v-551.8c0-22.9 18.6-41.5 41.5-41.5h2705c18.5 0 33.5 15 33.5 33.5v568.8c0 62.6-50.8 113.4-113.4 113.4z"/>
			<g id="&lt;Group&gt;">
				<g id="&lt;Group&gt;">
					<g id="&lt;Group&gt;">
						<path id="&lt;Path&gt;" class="s6" d="m2756 1983.2c-13.8-28.7-23.6-58.7-25.9-91.4-5.8-82.4 42.1-158.4 77.3-229.3 32.4-65.2 56.4-162.4-52.8-153.8-86.9 6.9-189.2 93.6-200.8 184-13.8 106.9 38.2 241.8-23.5 339-86.4 135.9-148.7 104.7-148.7 334.1 0 98 54.3 152.1 116.5 181.8 98.2 47 215.2 28 293.4-47.6 69.1-66.9 110.1-163 96.2-259.5-14-97.4-90.4-171.3-131.7-257.3z"/>
						<path id="&lt;Path&gt;" class="s7" d="m2683 2722.6c-2.2 0-4.3-1.5-4.8-3.8-54.2-216.1-83.6-412-87.6-582.2-3.2-136.5 9.9-256.9 38.8-357.9 49.6-173 127.6-228.7 130.9-231 2.3-1.6 5.4-1 7 1.3 1.6 2.2 1 5.4-1.2 6.9-0.8 0.6-78.9 56.7-127.4 226.9-44.8 157.4-72.7 447.1 49.2 933.6 0.7 2.7-0.9 5.4-3.6 6.1q-0.6 0.1-1.3 0.1z"/>
					</g>
					<path id="&lt;Path&gt;" class="s7" d="m2842.7 1741.4c-4.2-1.1-8.9-1.5-13.8-0.9-27.2 3.1-38.4 31.8-46.3 54.2-6.9 19.3-15 42.6-10.9 63.4 4.4 22.5 28.3 40.8 45.6 18 19.7-26 49.3-65.8 49.4-100.3 0.1-17.1-9.5-30.4-24-34.4z"/>
				</g>
				<g id="&lt;Group&gt;">
					<path id="&lt;Path&gt;" class="s7" d="m3111.3 2270.1c11.1-73.3-15.5-157.5-28.8-235-7-41-10.3-81.7-3.7-123 6.5-41 25.8-85.4 8-126.3-35.8-82.4-121-44.9-169.8 17.1-56.6 72-72.1 189.6-93.6 280.2-13 54.6-32.5 110.6-39.4 166.3-11.3 92.2 9.5 156.2 53.6 199.4 42.3 41.5 106.7 50.1 158.5 21.2 46.7-26 97.2-81.7 115.2-199.9z"/>
					<path id="&lt;Path&gt;" class="s2" d="m2916.4 2612.4c-2.4 0-4.6-1.7-5-4.2-0.2-1.1-18.7-113-19.2-267.5-0.4-142.6 14.9-351.8 90.3-538.3 1-2.5 3.9-3.8 6.5-2.7 2.6 1 3.8 3.9 2.8 6.5-74.8 184.9-90 392.6-89.6 534.3 0.5 153.7 19 265 19.1 266.1 0.5 2.7-1.3 5.3-4.1 5.8q-0.4 0-0.8 0z"/>
				</g>
			</g>
			<g id="&lt;Group&gt;">
				<path id="&lt;Path&gt;" class="s2" d="m1498.1 1271.8c-0.5-13.9-19.6-25.3-43-25.3h-885.9c-23.8 0-47.1 12-47.1 26.1v1260.3c0 6.7 6.6 13.2 14.7 18 8.1 4.8 20.1 7.5 31.5 7.5l926.2-1.5c11.6 0 22.8-2.8 30.9-7.7 8.1-4.9 12.6-11.6 12.4-18.5z"/>
				<g id="&lt;Group&gt;" style="opacity: .5">
					<g id="&lt;Group&gt;">
						<path id="&lt;Path&gt;" class="s0" d="m845.7 1395l-252.4-0.2-2-76.8h252.6z"/>
						<path id="&lt;Path&gt;" class="s0" d="m1128.5 1394.9l-252.1-0.2-1.7-76.7h252.4z"/>
						<path id="&lt;Path&gt;" class="s0" d="m1411.1 1394.9l-251.8-0.2-1.5-76.7h252.1z"/>
					</g>
					<g id="&lt;Group&gt;">
						<path id="&lt;Path&gt;" class="s0" d="m848.8 1532.8l-251.9 0.1-2-76.3 252.2-0.1z"/>
						<path id="&lt;Path&gt;" class="s0" d="m1131.2 1532.7l-251.7 0.1-1.7-76.3h251.9z"/>
						<path id="&lt;Path&gt;" class="s0" d="m1413.3 1532.6l-251.4 0.1-1.5-76.2 251.7-0.1z"/>
					</g>
					<g id="&lt;Group&gt;">
						<path id="&lt;Path&gt;" class="s0" d="m852 1669.7l-251.5 0.1-2-76 251.7-0.1z"/>
						<path id="&lt;Path&gt;" class="s0" d="m1133.9 1669.5l-251.3 0.2-1.7-76 251.5-0.1z"/>
						<path id="&lt;Path&gt;" class="s0" d="m1415.5 1669.3l-251 0.2-1.5-76 251.3-0.1z"/>
					</g>
					<g id="&lt;Group&gt;">
						<path id="&lt;Path&gt;" class="s0" d="m855.1 1806.1l-251.1 0.2-1.9-75.7 251.2-0.2z"/>
						<path id="&lt;Path&gt;" class="s0" d="m1136.5 1805.9l-250.8 0.2-1.7-75.7 251-0.2z"/>
						<path id="&lt;Path&gt;" class="s0" d="m1417.6 1805.6l-250.5 0.2-1.5-75.7 250.8-0.1z"/>
					</g>
					<g id="&lt;Group&gt;">
						<path id="&lt;Path&gt;" class="s0" d="m858.2 1942l-250.6 0.3-2-75.5 250.9-0.2z"/>
						<path id="&lt;Path&gt;" class="s0" d="m1139.1 1941.7l-250.3 0.3-1.7-75.4 250.6-0.3z"/>
						<path id="&lt;Path&gt;" class="s0" d="m1419.8 1941.4l-250.2 0.3-1.4-75.4 250.4-0.3z"/>
					</g>
					<g id="&lt;Group&gt;">
						<path id="&lt;Path&gt;" class="s0" d="m861.3 2077.5l-250.2 0.4-1.9-75.3 250.4-0.3z"/>
						<path id="&lt;Path&gt;" class="s0" d="m1141.8 2077.1l-250 0.4-1.7-75.2 250.2-0.3z"/>
						<path id="&lt;Path&gt;" class="s0" d="m1421.9 2076.8l-249.7 0.3-1.4-75.2 249.9-0.3z"/>
					</g>
					<g id="&lt;Group&gt;">
						<path id="&lt;Path&gt;" class="s0" d="m864.4 2212.5l-249.7 0.4-2-75 250-0.3z"/>
						<path id="&lt;Path&gt;" class="s0" d="m1144.4 2212.1l-249.5 0.4-1.7-75 249.7-0.3z"/>
						<path id="&lt;Path&gt;" class="s0" d="m1424 2211.6l-249.2 0.4-1.4-74.9 249.5-0.3z"/>
					</g>
					<g id="&lt;Group&gt;">
						<path id="&lt;Path&gt;" class="s0" d="m867.5 2347.1l-249.3 0.4-2-74.7 249.6-0.4z"/>
						<path id="&lt;Path&gt;" class="s0" d="m1147 2346.6l-249.1 0.4-1.7-74.7 249.3-0.4z"/>
						<path id="&lt;Path&gt;" class="s0" d="m1426.2 2346.1l-248.9 0.4-1.4-74.6 249.1-0.5z"/>
					</g>
					<g id="&lt;Group&gt;">
						<path id="&lt;Path&gt;" class="s0" d="m870.6 2481.2l-248.9 0.5-2-74.5 249.2-0.5z"/>
						<path id="&lt;Path&gt;" class="s0" d="m1149.6 2480.6l-248.7 0.5-1.7-74.4 248.9-0.5z"/>
						<path id="&lt;Path&gt;" class="s0" d="m1428.3 2480l-248.4 0.5-1.4-74.4 248.6-0.5z"/>
					</g>
				</g>
			</g>
			<g id="&lt;Group&gt;">
				<g id="&lt;Group&gt;">
					<path id="&lt;Path&gt;" class="s8" d="m961.5 1504c-20.1 8.3-39.7 21.4-46.2 35.6-29.5 63.9 34.7 143.6 59.6 197.9 42.9 93.4 64.8 197.2 51.5 299.8-14.5 111.1-19.5 219.7 4.5 330.3 12.4 57 34.6 116.7 76.2 159.4 78.5 80.7 252.6 17.1 277.8-83.5 20-80.2 1.4-164-25.8-240-45.8-127.8-111.9-247.2-158.5-374.7-35.7-97.5-43.3-297.3-164.9-330.8-22.3-6.1-53-2.9-74.2 6z"/>
					<path id="&lt;Path&gt;" class="s7" d="m1246.2 2720.5q-0.3 0-0.7-0.1c-2.7-0.3-4.7-2.9-4.3-5.6 45.3-344.8-28.7-644.5-98.7-835.3-76-206.8-163.8-333.7-164.7-334.9-1.5-2.3-1-5.4 1.3-7 2.3-1.6 5.4-1.1 7 1.2 0.9 1.3 89.3 129 165.7 336.9 70.5 191.9 145 493.5 99.4 840.4-0.4 2.5-2.5 4.4-5 4.4z"/>
				</g>
				<g id="&lt;Group&gt;">
					<path id="&lt;Path&gt;" class="s7" d="m1167.7 2406.6c-13.1-55.5-56.3-108-88.1-159.5-16.8-27.3-30.8-55.4-38-86.8-7.2-31.2-6.1-68.4-30.6-92.5-49.3-48.6-99.4 2.7-116.4 61.1-19.7 67.7 3.1 156.1 13.7 227 6.5 42.7 8.7 88.3 19.8 130.1 18.4 69 51.7 108.8 95.6 126.9 42.1 17.5 90.6 5.1 119.3-30.4 25.9-32 45.9-86.3 24.7-175.9z"/>
					<path id="&lt;Path&gt;" class="s2" d="m1125.6 2708.6c-1.7 0-3.4-0.9-4.3-2.4-1.8-3-181.6-299.9-181.2-596.5 0-2.8 2.3-5 5-5 2.8 0 5.1 2.2 5 5-0.4 293.7 177.9 588.3 179.7 591.2 1.5 2.4 0.7 5.5-1.6 6.9-0.8 0.5-1.7 0.8-2.6 0.8z"/>
				</g>
			</g>
			<g id="&lt;Group&gt;">
				<path id="&lt;Path&gt;" class="s0" d="m1193.9 2227.6c0 364.1 295.2 659.3 659.3 659.3 364.1 0 659.3-295.2 659.3-659.3 0-364.2-295.2-659.3-659.3-659.3-364.1 0-659.3 295.1-659.3 659.3z"/>
				<path id="&lt;Path&gt;" class="s9" d="m1215.8 2227.6c0 352 285.4 637.4 637.4 637.4 352 0 637.4-285.4 637.4-637.4 0-352-285.4-637.4-637.4-637.4-352 0-637.4 285.4-637.4 637.4z"/>
				<path id="&lt;Path&gt;" class="s0" d="m1299.8 2241.5c0 297.9 241.6 539.5 539.5 539.5 298 0 539.5-241.6 539.5-539.5 0-298-241.5-539.5-539.5-539.5-297.9 0-539.5 241.5-539.5 539.5z"/>
				<path id="&lt;Path&gt;" class="s10" d="m2055.8 1915.8v530.5c0 130.7-104.9 237.6-235.7 237.6h-6.5c-11.2 0-22.3-1.7-33.2-3.5 0 0 0-0.3-0.1-0.3-86.3-14.2-159.1-75.5-186.8-160.7l-107.3-302.9c-0.2-0.5-0.4-1-0.6-1.6-0.1-0.4-0.2-0.9-0.3-1.4q-0.2-0.5-0.3-1c-0.1-0.4-0.2-0.8-0.2-1.1q-0.2-0.6-0.3-1.1c-0.1-0.7-0.1-1.4-0.2-2.1-0.1-0.5-0.2-1.1-0.2-1.6v-0.3c0-0.6-0.1-1.3-0.1-2q0-0.8 0-1.7 0.1-1.5 0.3-2.9 0.3-2.9 1.1-5.6 0.1-0.6 0.3-1.1 0.4-1.4 1-2.7 0.3-0.8 0.7-1.6 0.9-1.9 2-3.8 0.8-1.2 1.6-2.4 2.1-2.9 4.8-5.4c0.7-0.6 1.3-1.3 2-1.8 3.2-2.6 6.7-4.7 10.7-6.2q0.8-0.3 1.5-0.6 2.6-0.8 5.2-1.5 4.9-1.2 9.9-1.8 0.9-0.1 1.8-0.1c1.3-0.2 2.6-0.2 3.9-0.3 29.5-0.8 57.3 16.7 67.5 45.1l48 126.1 0.4 1v0.1l0.8 0.9v-484.2c0-25.2 18.9-46.5 43.8-46.5q0.1 0 0.1 0c0.5 0 1.1 0.2 1.7 0.1 0.1 0 0.1 0.1 0.1 0.1 1.1-0.1 1.4-0.3 2.4-0.3 25.4 1.2 44.4 22.6 44.4 48v294.4c0 1.5 1.1 2.8 2.1 3.8 1 1 2.6 1.6 4.1 1.6 1.9 0 3.6-0.9 4.6-2.3 0 0-0.4 0-0.4-0.1 0.7-0.8 0.5-1.9 0.5-3v-323c0-25.2 20.8-46.5 45.7-46.5h2.4q0 0 0 0c0.8 0 1.6-0.3 2.4-0.3 25.3 1.2 44.8 22.7 44.8 48.2v321.6c0 1.5 0.7 2.8 1.7 3.8 0.9 1 2.3 1.6 3.8 1.6 2.2 0 3.8-1.3 4.7-3.2 0.1-0.3 0.5-0.7 0.4-1.1 0-0.4 0.3-0.7 0.3-1.1v-295.8c0-25.2 19.9-46.5 44.8-46.5h4.4q0 0 0 0c25.4 0 46.1 22.5 46.1 47.9v294.4c0 3 2 5.4 5.1 5.4 1.8 0 3.7-0.9 4.7-2.4 0.1 0-0.2-0.1-0.1-0.2 0.5-0.8 1.2-1.8 1.2-2.8v-233.8c0-25.1 19.4-48.6 44.1-48.6h0.1c0 0 0 0 0 0 0.3 0 0.5 0 0.8 0q0.5 0 1 0h0.1c0.4 0-0.3 0.8 0 0.8 26.1 0 46.4 21.8 46.4 47.8z"/>
				<path id="&lt;Path&gt;" class="s11" d="m1530.8 2721.3l-74.5-60 729.5-931.8 74.9 49.7z"/>
				<path id="&lt;Path&gt;" class="s12" d="m2378.8 1969.5c1 0 2.1-0.2 3-0.7 3.4-1.7 4.7-5.7 3-9-101.9-201.9-305.6-327.4-531.6-327.4-36 0-72.2 3.3-107.3 9.7-3.7 0.7-6.1 4.2-5.5 7.8 0.7 3.7 4.2 6.2 7.9 5.5 34.4-6.3 69.7-9.5 104.9-9.5 220.9 0 420 122.6 519.6 319.9 1.2 2.4 3.6 3.7 6 3.7z"/>
			</g>
			<g id="&lt;Group&gt;">
				<g id="&lt;Group&gt;">
					<path id="&lt;Path&gt;" class="s13" d="m733.3 1036.3c-5 0.4-9.4-3.3-9.9-8.3-0.4-5 3.3-9.4 8.3-9.9 5-0.4 9.4 3.3 9.9 8.3 0.4 5-3.3 9.4-8.3 9.9z"/>
					<path id="&lt;Path&gt;" class="s14" d="m724.4 1023.3c-0.3 6.3-15.9 12.6-27.4 16.3l0.5 5.2c13.9-5.1 26.7-11.4 33.7-8.6z"/>
				</g>
				<g id="&lt;Group&gt;">
					<path id="&lt;Path&gt;" class="s15" d="m548.7 1076.4c4.7 1.9 6.9 7.2 5 11.9-1.9 4.6-7.2 6.9-11.8 5-4.7-1.9-6.9-7.2-5.1-11.9 1.9-4.6 7.2-6.9 11.9-5z"/>
					<path id="&lt;Path&gt;" class="s16" d="m550.7 1092c3.2-5.4 19.9-3.9 31.8-1.9l1.9-4.8c-14.7-1.9-28.9-2.1-33.9-7.9z"/>
				</g>
				<g id="&lt;Group&gt;">
					<path id="&lt;Path&gt;" class="s17" d="m736.6 1150c-3.2-3.9-2.5-9.6 1.4-12.8 3.9-3.1 9.6-2.5 12.8 1.4 3.1 3.9 2.5 9.7-1.4 12.8-3.9 3.2-9.7 2.6-12.8-1.4z"/>
					<path id="&lt;Path&gt;" class="s18" d="m742.5 1135.5c-5.5 3.2-19.4-6.4-28.8-13.9l-4 3.3c11.9 8.8 24.3 15.9 25.8 23.4z"/>
				</g>
				<path id="&lt;Path&gt;" class="s19" d="m731.5 1096.8c0 46.5-37.7 84.2-84.2 84.2-46.5 0-84.1-37.7-84.1-84.2 0-46.5 37.6-84.1 84.1-84.1 46.5 0 84.2 37.6 84.2 84.1z"/>
				<path id="&lt;Path&gt;" class="s20" d="m623.5 1087.7c0 5-4.1 9.1-9.1 9.1-5.1 0-9.2-4.1-9.2-9.1 0-5 4.1-9.1 9.2-9.1 5 0 9.1 4.1 9.1 9.1z"/>
				<path id="&lt;Path&gt;" class="s21" d="m670.4 1098.7c0 5.1-4.1 9.1-9.1 9.1-5 0-9.1-4-9.1-9.1 0-5 4.1-9.1 9.1-9.1 5 0 9.1 4.1 9.1 9.1z"/>
				<path id="&lt;Path&gt;" class="s22" d="m647.6 1039.6c0 5-4 9.1-9.1 9.1-5 0-9.1-4.1-9.1-9.1 0-5.1 4.1-9.1 9.1-9.1 5.1 0 9.1 4 9.1 9.1z"/>
				<path id="&lt;Path&gt;" class="s23" d="m708.8 1060c0 5-4.1 9.1-9.1 9.1-5 0-9.1-4.1-9.1-9.1 0-5.1 4.1-9.2 9.1-9.2 5 0 9.1 4.1 9.1 9.2z"/>
				<path id="&lt;Path&gt;" class="s24" d="m679.6 1137.5c0 5.1-4 9.2-9.1 9.2-5 0-9.1-4.1-9.1-9.2 0-5 4.1-9.1 9.1-9.1 5.1 0 9.1 4.1 9.1 9.1z"/>
				<path id="&lt;Path&gt;" class="s25" d="m616.5 1137.5c0 5.1-4.1 9.2-9.1 9.2-5 0-9.1-4.1-9.1-9.2 0-5 4.1-9.1 9.1-9.1 5 0 9.1 4.1 9.1 9.1z"/>
				<g id="&lt;Group&gt;">
					<path id="&lt;Path&gt;" class="s26" d="m647.7 985.9c-1.3 4.8-6.3 7.7-11.1 6.3-4.9-1.3-7.8-6.3-6.4-11.1 1.3-4.9 6.3-7.8 11.1-6.4 4.9 1.3 7.8 6.3 6.4 11.2z"/>
					<path id="&lt;Path&gt;" class="s27" d="m632.5 989.6c5.8 2.6 6.2 19.4 5.6 31.4l5.1 1.4c0.1-14.8-1.4-29 3.8-34.6z"/>
				</g>
				<g id="&lt;Group&gt;">
					<path id="&lt;Path&gt;" class="s28" d="m563.1 1032.6c3.6 3.5 3.7 9.3 0.2 12.9-3.5 3.6-9.3 3.7-12.9 0.2-3.6-3.5-3.7-9.3-0.2-12.9 3.5-3.6 9.3-3.7 12.9-0.2z"/>
					<path id="&lt;Path&gt;" class="s29" d="m559.1 1047.8c5-3.8 19.9 3.9 30.2 10.1l0.4-0.4c1.6-1.7 1.2-4.4-0.8-5.5-11.6-6.2-22.3-11.3-24.5-17.8z"/>
				</g>
				<g id="&lt;Group&gt;">
					<path id="&lt;Path&gt;" class="s30" d="m616.5 1048.5c2.6 3.2 1.5 8.4-2.5 11.5-3.9 3.2-9.1 3.1-11.7-0.1-2.6-3.2-1.5-8.3 2.5-11.5 3.9-3.1 9.2-3.1 11.7 0.1z"/>
					<path id="&lt;Path&gt;" class="s31" d="m609.7 1062c5.4-3.3 17.4 3.9 25.4 9.8l0.5-0.5c1.8-1.4 2-3.8 0.4-4.8-9.2-5.8-18-10.7-18.6-16.5z"/>
				</g>
				<g id="&lt;Group&gt;">
					<path id="&lt;Path&gt;" class="s32" d="m572.4 1093.4c4.3 0.7 7.1 5.2 6.4 10.2-0.7 5-4.8 8.5-9.1 7.9-4.3-0.7-7.2-5.2-6.4-10.2 0.7-5 4.8-8.5 9.1-7.9z"/>
					<path id="&lt;Path&gt;" class="s33" d="m576 1107.8c1.5-6 13.4-9.2 21.8-10.6l0.1-0.6c0.3-2.3-0.9-4.2-2.5-3.8-9.2 2.3-17.6 4.8-21.3 1.1z"/>
				</g>
				<g id="&lt;Group&gt;">
					<path id="&lt;Path&gt;" class="s34" d="m548.9 1133.1c4.9-1.1 9.8 1.9 11 6.8 1.1 4.9-1.9 9.8-6.8 10.9-5 1.2-9.8-1.9-11-6.8-1.1-4.9 1.9-9.8 6.8-10.9z"/>
					<path id="&lt;Path&gt;" class="s35" d="m559.5 1144.7c-0.5-5.9 12.5-13.7 23-18.9 1.1-0.6 1.7-1.8 1.4-3l-0.3-1.5c-0.2-0.7-1-1.1-1.7-0.8-12.6 6.8-23.8 14.2-30.9 12.4z"/>
				</g>
				<g id="&lt;Group&gt;">
					<path id="&lt;Path&gt;" class="s36" d="m626.6 1135.8c2.5-3.2 7.3-3.6 10.7-1 3.5 2.7 4.2 7.5 1.8 10.7-2.5 3.2-7.3 3.6-10.8 1-3.4-2.7-4.2-7.4-1.7-10.7z"/>
					<path id="&lt;Path&gt;" class="s37" d="m639.1 1139c-3.7-3.5-1.4-13 1.1-20.1 0.2-0.8-0.2-1.8-1.1-2.4l-1-0.8c-0.5-0.4-1.2-0.3-1.3 0.1-2.7 8.8-4.3 17.4-9 18.8z"/>
				</g>
				<g id="&lt;Group&gt;">
					<path id="&lt;Path&gt;" class="s38" d="m646.8 1206c1.3-4.8 6.3-7.8 11.2-6.5 4.8 1.3 7.7 6.3 6.5 11.1-1.3 4.9-6.3 7.8-11.2 6.5-4.8-1.2-7.7-6.2-6.5-11.1z"/>
					<path id="&lt;Path&gt;" class="s39" d="m662 1202.1c-5.3-2.3-6.2-17-6-28.6 0-1.6-1-3-2.6-3.4-1.2-0.3-2.4 0.6-2.3 1.9 0.2 13.8 1.3 26.8-3.5 32.1z"/>
				</g>
				<g id="&lt;Group&gt;">
					<path id="&lt;Path&gt;" class="s40" d="m601.4 1002.5c0.6 5-3 9.6-8 10.1-5 0.6-9.6-3-10.1-8-0.6-5 3-9.5 8-10.1 5-0.6 9.5 3 10.1 8z"/>
					<path id="&lt;Path&gt;" class="s41" d="m588.6 1011.7c6.1 0.2 12.5 14.8 16.5 26 0.2 0.6 0.8 1 1.5 0.9 2-0.2 3.3-2.3 2.5-4.2-5-12.3-10.2-23.3-7.7-29.8z"/>
				</g>
				<g id="&lt;Group&gt;">
					<path id="&lt;Path&gt;" class="s42" d="m753.9 1093.3c-4.7-1.9-7-7.2-5.1-11.8 1.9-4.7 7.2-7 11.8-5.1 4.7 1.9 7 7.2 5.1 11.9-1.9 4.6-7.2 6.9-11.8 5z"/>
					<path id="&lt;Path&gt;" class="s43" d="m751.9 1077.7c-3.1 5.2-18.3 4.1-30 2.3-1.1-0.2-2.2 0.5-2.6 1.5-0.6 1.5 0.4 3.2 2.1 3.4 13.5 1.5 26 2.1 30.6 7.4z"/>
				</g>
				<g id="&lt;Group&gt;">
					<path id="&lt;Path&gt;" class="s44" d="m712.9 1108c-3.9-1.5-5.5-6.6-3.7-11.2 1.9-4.7 6.6-7.2 10.5-5.7 3.9 1.6 5.5 6.7 3.6 11.3-1.8 4.7-6.5 7.2-10.4 5.6z"/>
					<path id="&lt;Path&gt;" class="s45" d="m712.1 1092.9c-2.9 5.2-15.9 5-25.8 4-0.9-0.1-1.9 0.6-2.3 1.6-0.6 1.5 0.2 3.1 1.6 3.2 11.4 0.7 22.1 0.5 25.8 5.5z"/>
				</g>
				<g id="&lt;Group&gt;">
					<path id="&lt;Path&gt;" class="s46" d="m676.1 1055.2c-2.8 3.3-8.2 3.4-12.1 0.2-3.8-3.3-4.6-8.6-1.8-12 2.8-3.3 8.2-3.3 12-0.1 3.9 3.3 4.7 8.6 1.9 11.9z"/>
					<path id="&lt;Path&gt;" class="s47" d="m662.2 1050.4c4.1 4.2 1.8 14.2-0.7 21.4-0.3 0.7 0.2 1.6 1 2.4 1.3 1 2.9 1.1 3.2 0 2.4-8.6 4.1-16.9 9-17.8z"/>
				</g>
				<g id="&lt;Group&gt;">
					<path id="&lt;Path&gt;" class="s48" d="m700.6 1188c-2-4.5 0-9.9 4.6-12 4.6-2.1 10 0 12 4.6 2.1 4.6 0 10-4.5 12-4.6 2.1-10 0-12.1-4.6z"/>
					<path id="&lt;Path&gt;" class="s49" d="m710 1175.4c-5.3 1.5-15.3-10.2-22.5-19.5-1.5-1.9-4.3-1.9-5.8 0-0.4 0.6-0.4 1.5 0.1 2.1 9.1 11 18.6 20.7 18.2 28.1z"/>
				</g>
				<g id="&lt;Group&gt;">
					<path id="&lt;Path&gt;" class="s50" d="m695.9 998.6c-3.8 3.3-9.5 3-12.9-0.8-3.3-3.8-2.9-9.5 0.8-12.9 3.8-3.3 9.6-2.9 12.9 0.8 3.3 3.8 3 9.6-0.8 12.9z"/>
					<path id="&lt;Path&gt;" class="s51" d="m681.1 993.4c3.4 5.3-5.5 19.6-12.5 29.3l3.4 3.9c8.2-12.3 14.8-25 22.2-26.8z"/>
				</g>
				<g id="&lt;Group&gt;">
					<path id="&lt;Path&gt;" class="s52" d="m599.1 1187.3c3.6-3.6 9.4-3.5 12.9 0 3.5 3.6 3.5 9.4-0.1 12.9-3.5 3.6-9.3 3.5-12.8-0.1-3.6-3.5-3.6-9.3 0-12.8z"/>
					<path id="&lt;Path&gt;" class="s53" d="m614.2 1191.6c-3.4-4.7 3.2-17.7 9.4-27.7 0.8-1.3 0.6-3.1-0.5-4.2-0.9-0.9-2.4-0.7-3 0.3-6.9 12.1-12.5 23.8-19.3 26z"/>
				</g>
			</g>
			<g id="&lt;Group&gt;">
				<g id="&lt;Group&gt;">
					<path id="&lt;Path&gt;" class="s54" d="m2509.3 1159.9c-4.6 0.4-8.6-3-9-7.6-0.5-4.6 2.9-8.6 7.5-9 4.6-0.4 8.6 2.9 9 7.5 0.5 4.6-2.9 8.6-7.5 9.1z"/>
					<path id="&lt;Path&gt;" class="s55" d="m2501.2 1148c-0.3 5.8-14.6 11.5-25.1 14.9l0.5 4.7c12.7-4.6 24.4-10.4 30.8-7.8z"/>
				</g>
				<g id="&lt;Group&gt;">
					<path id="&lt;Path&gt;" class="s56" d="m2340.5 1196.6c4.3 1.7 6.4 6.5 4.6 10.8-1.7 4.3-6.5 6.3-10.8 4.6-4.3-1.7-6.3-6.6-4.6-10.9 1.7-4.2 6.6-6.3 10.8-4.5z"/>
					<path id="&lt;Path&gt;" class="s57" d="m2342.3 1210.8c3-5 18.3-3.5 29.1-1.8l1.8-4.4c-13.4-1.6-26.5-1.9-31-7.1z"/>
				</g>
				<g id="&lt;Group&gt;">
					<path id="&lt;Path&gt;" class="s58" d="m2512.3 1263.9c-2.9-3.6-2.3-8.9 1.3-11.8 3.5-2.8 8.8-2.3 11.7 1.3 2.8 3.6 2.3 8.8-1.3 11.7-3.6 2.9-8.8 2.3-11.7-1.2z"/>
					<path id="&lt;Path&gt;" class="s59" d="m2517.7 1250.5c-5 2.9-17.7-5.8-26.3-12.6l-3.7 3c10.9 8 22.2 14.5 23.6 21.3z"/>
				</g>
				<path id="&lt;Path&gt;" class="s60" d="m2507.6 1215.2c0 42.5-34.4 77-76.9 77-42.5 0-76.9-34.5-76.9-77 0-42.5 34.4-76.9 76.9-76.9 42.5 0 76.9 34.4 76.9 76.9z"/>
				<path id="&lt;Path&gt;" class="s61" d="m2408.9 1206.9c0 4.6-3.8 8.3-8.4 8.3-4.5 0-8.3-3.7-8.3-8.3 0-4.6 3.8-8.3 8.3-8.3 4.6 0 8.4 3.7 8.4 8.3z"/>
				<path id="&lt;Path&gt;" class="s62" d="m2451.8 1217c0 4.5-3.7 8.3-8.3 8.3-4.6 0-8.4-3.8-8.4-8.3 0-4.6 3.8-8.4 8.4-8.4 4.6 0 8.3 3.8 8.3 8.4z"/>
				<path id="&lt;Path&gt;" class="s63" d="m2431 1162.9c0 4.6-3.7 8.3-8.3 8.3-4.6 0-8.4-3.7-8.4-8.3 0-4.6 3.8-8.4 8.4-8.4 4.6 0 8.3 3.8 8.3 8.4z"/>
				<path id="&lt;Path&gt;" class="s64" d="m2486.9 1181.5c0 4.6-3.7 8.3-8.3 8.3-4.6 0-8.4-3.7-8.4-8.3 0-4.6 3.8-8.3 8.4-8.3 4.6 0 8.3 3.7 8.3 8.3z"/>
				<path id="&lt;Path&gt;" class="s65" d="m2460.2 1252.4c0 4.6-3.7 8.4-8.3 8.4-4.6 0-8.3-3.8-8.3-8.4 0-4.6 3.7-8.3 8.3-8.3 4.6 0 8.3 3.7 8.3 8.3z"/>
				<path id="&lt;Path&gt;" class="s66" d="m2402.5 1252.4c0 4.6-3.7 8.4-8.3 8.4-4.6 0-8.3-3.8-8.3-8.4 0-4.6 3.7-8.3 8.3-8.3 4.6 0 8.3 3.7 8.3 8.3z"/>
				<g id="&lt;Group&gt;">
					<path id="&lt;Path&gt;" class="s67" d="m2431.1 1113.8c-1.2 4.4-5.8 7-10.3 5.8-4.4-1.2-7-5.8-5.8-10.2 1.2-4.5 5.8-7.1 10.2-5.9 4.5 1.3 7.1 5.8 5.9 10.3z"/>
					<path id="&lt;Path&gt;" class="s68" d="m2417.1 1117.2c5.3 2.4 5.7 17.7 5.2 28.7l4.6 1.3c0.1-13.6-1.2-26.5 3.5-31.7z"/>
				</g>
				<g id="&lt;Group&gt;">
					<path id="&lt;Path&gt;" class="s69" d="m2353.7 1156.5c3.3 3.2 3.4 8.5 0.2 11.8-3.2 3.3-8.5 3.4-11.8 0.2-3.3-3.2-3.4-8.5-0.2-11.8 3.2-3.3 8.5-3.4 11.8-0.2z"/>
					<path id="&lt;Path&gt;" class="s70" d="m2350 1170.4c4.6-3.5 18.3 3.6 27.6 9.3l0.4-0.5c1.5-1.5 1.1-4-0.7-5-10.6-5.6-20.4-10.3-22.4-16.2z"/>
				</g>
				<g id="&lt;Group&gt;">
					<path id="&lt;Path&gt;" class="s71" d="m2402.5 1171.1c2.4 2.9 1.4 7.6-2.2 10.5-3.6 2.8-8.4 2.8-10.8-0.1-2.3-3-1.3-7.7 2.3-10.5 3.6-2.9 8.4-2.9 10.7 0.1z"/>
					<path id="&lt;Path&gt;" class="s72" d="m2396.3 1183.4c4.9-3.1 15.9 3.6 23.2 8.9l0.5-0.4c1.6-1.3 1.8-3.5 0.3-4.4-8.4-5.3-16.4-9.8-17-15.1z"/>
				</g>
				<g id="&lt;Group&gt;">
					<path id="&lt;Path&gt;" class="s73" d="m2362.2 1212.1c3.9 0.6 6.5 4.8 5.9 9.3-0.7 4.6-4.4 7.8-8.4 7.2-3.9-0.6-6.5-4.8-5.8-9.3 0.6-4.6 4.4-7.8 8.3-7.2z"/>
					<path id="&lt;Path&gt;" class="s74" d="m2365.5 1225.3c1.4-5.6 12.2-8.4 19.9-9.7l0.1-0.6c0.3-2.1-0.8-3.8-2.3-3.4-8.4 2-16 4.4-19.4 1z"/>
				</g>
				<g id="&lt;Group&gt;">
					<path id="&lt;Path&gt;" class="s75" d="m2340.8 1248.4c4.4-1.1 8.9 1.7 9.9 6.2 1.1 4.5-1.7 8.9-6.2 10-4.5 1-8.9-1.8-10-6.2-1-4.5 1.8-9 6.3-10z"/>
					<path id="&lt;Path&gt;" class="s76" d="m2350.4 1259c-0.4-5.4 11.4-12.5 21-17.3 1.1-0.5 1.6-1.7 1.4-2.8l-0.3-1.3c-0.2-0.7-1-1.1-1.6-0.7-11.5 6.2-21.8 12.9-28.2 11.2z"/>
				</g>
				<g id="&lt;Group&gt;">
					<path id="&lt;Path&gt;" class="s77" d="m2411.7 1250.9c2.3-3 6.7-3.4 9.8-1 3.2 2.5 3.9 6.8 1.6 9.8-2.2 2.9-6.6 3.3-9.8 0.9-3.1-2.4-3.8-6.8-1.6-9.7z"/>
					<path id="&lt;Path&gt;" class="s78" d="m2423.2 1253.8c-3.4-3.3-1.3-12 0.9-18.4 0.3-0.7-0.1-1.6-0.9-2.2l-0.9-0.7c-0.5-0.4-1.1-0.4-1.3 0.1-2.4 8-3.8 15.9-8.2 17.2z"/>
				</g>
				<g id="&lt;Group&gt;">
					<path id="&lt;Path&gt;" class="s79" d="m2430.2 1315c1.2-4.4 5.8-7.1 10.2-5.9 4.5 1.1 7.1 5.7 6 10.1-1.2 4.5-5.8 7.2-10.2 6-4.5-1.2-7.1-5.7-6-10.2z"/>
					<path id="&lt;Path&gt;" class="s80" d="m2444.1 1311.4c-4.9-2.1-5.7-15.5-5.5-26.1 0-1.5-0.9-2.8-2.3-3.1-1.1-0.3-2.2 0.5-2.2 1.7 0.2 12.7 1.2 24.5-3.2 29.3z"/>
				</g>
				<g id="&lt;Group&gt;">
					<path id="&lt;Path&gt;" class="s81" d="m2388.7 1129c0.5 4.6-2.8 8.7-7.3 9.2-4.6 0.5-8.7-2.8-9.2-7.3-0.6-4.6 2.7-8.7 7.3-9.2 4.6-0.5 8.7 2.8 9.2 7.3z"/>
					<path id="&lt;Path&gt;" class="s82" d="m2377 1137.4c5.6 0.2 11.5 13.5 15.1 23.8 0.2 0.5 0.7 0.9 1.3 0.8 1.9-0.2 3.1-2.1 2.3-3.9-4.5-11.2-9.2-21.3-7-27.2z"/>
				</g>
				<g id="&lt;Group&gt;">
					<path id="&lt;Path&gt;" class="s83" d="m2528.1 1212c-4.3-1.7-6.4-6.6-4.7-10.8 1.8-4.3 6.6-6.4 10.9-4.7 4.2 1.8 6.3 6.6 4.6 10.9-1.7 4.2-6.6 6.3-10.8 4.6z"/>
					<path id="&lt;Path&gt;" class="s84" d="m2526.2 1197.8c-2.7 4.7-16.7 3.7-27.3 2-1-0.1-2 0.4-2.4 1.4-0.6 1.4 0.4 3 1.9 3.1 12.3 1.4 23.8 1.9 28 6.8z"/>
				</g>
				<g id="&lt;Group&gt;">
					<path id="&lt;Path&gt;" class="s85" d="m2490.6 1225.5c-3.5-1.5-5-6.1-3.3-10.4 1.7-4.2 6-6.5 9.5-5.1 3.6 1.4 5.1 6.1 3.4 10.3-1.7 4.3-6 6.6-9.6 5.2z"/>
					<path id="&lt;Path&gt;" class="s86" d="m2489.9 1211.7c-2.7 4.7-14.5 4.5-23.6 3.6-0.8-0.1-1.7 0.5-2.1 1.4-0.6 1.4 0.2 2.9 1.4 3 10.5 0.6 20.3 0.5 23.6 5z"/>
				</g>
				<g id="&lt;Group&gt;">
					<path id="&lt;Path&gt;" class="s87" d="m2457 1177.2c-2.6 3-7.5 3.1-11.1 0.1-3.5-3-4.2-7.8-1.6-10.9 2.5-3 7.5-3.1 11-0.1 3.5 3 4.2 7.8 1.7 10.9z"/>
					<path id="&lt;Path&gt;" class="s88" d="m2444.3 1172.8c3.8 3.8 1.7 12.9-0.7 19.5-0.2 0.6 0.2 1.5 1 2.2 1.1 1 2.6 1 2.8 0 2.3-7.8 3.8-15.4 8.3-16.2z"/>
				</g>
				<g id="&lt;Group&gt;">
					<path id="&lt;Path&gt;" class="s89" d="m2479.4 1298.6c-1.9-4.2 0-9.1 4.2-11 4.2-1.9 9.1 0 11 4.2 1.9 4.2 0 9.1-4.2 11-4.2 1.9-9.1 0-11-4.2z"/>
					<path id="&lt;Path&gt;" class="s90" d="m2488 1287.1c-4.9 1.3-14-9.4-20.6-17.9-1.3-1.8-4-1.8-5.3 0-0.4 0.6-0.4 1.3 0.1 1.9 8.3 10.1 17 18.9 16.6 25.7z"/>
				</g>
				<g id="&lt;Group&gt;">
					<path id="&lt;Path&gt;" class="s91" d="m2475.1 1125.4c-3.5 3.1-8.7 2.7-11.8-0.7-3-3.5-2.7-8.7 0.8-11.8 3.4-3 8.7-2.7 11.7 0.8 3.1 3.4 2.7 8.7-0.7 11.7z"/>
					<path id="&lt;Path&gt;" class="s92" d="m2461.5 1120.7c3.2 4.8-5 17.9-11.4 26.8l3.2 3.5c7.5-11.2 13.5-22.8 20.2-24.5z"/>
				</g>
				<g id="&lt;Group&gt;">
					<path id="&lt;Path&gt;" class="s93" d="m2386.6 1297.9c3.3-3.3 8.6-3.2 11.8 0 3.2 3.3 3.2 8.6-0.1 11.8-3.2 3.2-8.5 3.2-11.7-0.1-3.3-3.2-3.2-8.5 0-11.7z"/>
					<path id="&lt;Path&gt;" class="s94" d="m2400.4 1301.8c-3.1-4.3 3-16.2 8.6-25.2 0.7-1.3 0.6-2.9-0.5-4-0.8-0.8-2.1-0.6-2.7 0.4-6.3 11-11.4 21.7-17.7 23.7z"/>
				</g>
			</g>
			<g id="&lt;Group&gt;">
				<g id="&lt;Group&gt;">
					<path id="&lt;Path&gt;" class="s95" d="m1765 518.3c-4.6 0.4-8.6-3-9.1-7.5-0.4-4.6 3-8.7 7.6-9.1 4.6-0.4 8.6 3 9 7.5 0.5 4.6-2.9 8.7-7.5 9.1z"/>
					<path id="&lt;Path&gt;" class="s96" d="m1756.9 506.4c-0.4 5.8-14.6 11.6-25.1 14.9l0.5 4.8c12.7-4.7 24.4-10.5 30.8-7.9z"/>
				</g>
				<g id="&lt;Group&gt;">
					<path id="&lt;Path&gt;" class="s97" d="m1596.2 555c4.3 1.7 6.4 6.6 4.6 10.8-1.7 4.3-6.5 6.3-10.8 4.6-4.3-1.7-6.3-6.6-4.6-10.8 1.7-4.3 6.6-6.3 10.8-4.6z"/>
					<path id="&lt;Path&gt;" class="s98" d="m1598 569.2c3-4.9 18.3-3.5 29.1-1.7l1.8-4.4c-13.4-1.7-26.5-1.9-31-7.2z"/>
				</g>
				<g id="&lt;Group&gt;">
					<path id="&lt;Path&gt;" class="s99" d="m1768 622.3c-2.9-3.6-2.3-8.8 1.2-11.7 3.6-2.9 8.9-2.3 11.8 1.2 2.8 3.6 2.3 8.9-1.3 11.8-3.6 2.8-8.8 2.3-11.7-1.3z"/>
					<path id="&lt;Path&gt;" class="s100" d="m1773.3 609c-4.9 2.9-17.6-5.8-26.2-12.7l-3.7 3c10.9 8 22.2 14.6 23.6 21.4z"/>
				</g>
				<path id="&lt;Path&gt;" class="s101" d="m1763.3 573.6c0 42.5-34.4 77-76.9 77-42.5 0-77-34.5-77-77 0-42.4 34.5-76.9 77-76.9 42.5 0 76.9 34.5 76.9 76.9z"/>
				<path id="&lt;Path&gt;" class="s102" d="m1664.6 565.3c0 4.6-3.8 8.3-8.4 8.3-4.6 0-8.3-3.7-8.3-8.3 0-4.6 3.7-8.3 8.3-8.3 4.6 0 8.4 3.7 8.4 8.3z"/>
				<path id="&lt;Path&gt;" class="s103" d="m1707.5 575.4c0 4.6-3.7 8.3-8.3 8.3-4.6 0-8.4-3.7-8.4-8.3 0-4.6 3.8-8.3 8.4-8.3 4.6 0 8.3 3.7 8.3 8.3z"/>
				<path id="&lt;Path&gt;" class="s104" d="m1686.7 521.3c0 4.6-3.7 8.3-8.3 8.3-4.6 0-8.4-3.7-8.4-8.3 0-4.6 3.8-8.3 8.4-8.3 4.6 0 8.3 3.7 8.3 8.3z"/>
				<path id="&lt;Path&gt;" class="s105" d="m1742.6 539.9c0 4.6-3.7 8.4-8.3 8.4-4.6 0-8.4-3.8-8.4-8.4 0-4.6 3.8-8.3 8.4-8.3 4.6 0 8.3 3.7 8.3 8.3z"/>
				<path id="&lt;Path&gt;" class="s106" d="m1715.9 610.9c0 4.6-3.7 8.3-8.3 8.3-4.6 0-8.3-3.7-8.3-8.3 0-4.6 3.7-8.4 8.3-8.4 4.6 0 8.3 3.8 8.3 8.4z"/>
				<path id="&lt;Path&gt;" class="s107" d="m1658.2 610.9c0 4.6-3.7 8.3-8.3 8.3-4.6 0-8.3-3.7-8.3-8.3 0-4.6 3.7-8.4 8.3-8.4 4.6 0 8.3 3.8 8.3 8.4z"/>
				<g id="&lt;Group&gt;">
					<path id="&lt;Path&gt;" class="s108" d="m1686.8 472.2c-1.2 4.4-5.8 7.1-10.3 5.8-4.4-1.2-7-5.7-5.8-10.2 1.2-4.4 5.8-7 10.2-5.8 4.5 1.2 7.1 5.8 5.9 10.2z"/>
					<path id="&lt;Path&gt;" class="s109" d="m1672.8 475.7c5.3 2.3 5.7 17.7 5.2 28.6l4.6 1.3c0.1-13.5-1.2-26.5 3.5-31.6z"/>
				</g>
				<g id="&lt;Group&gt;">
					<path id="&lt;Path&gt;" class="s110" d="m1609.4 514.9c3.3 3.2 3.4 8.5 0.2 11.8-3.2 3.3-8.5 3.4-11.8 0.2-3.3-3.2-3.4-8.5-0.2-11.8 3.2-3.3 8.5-3.4 11.8-0.2z"/>
					<path id="&lt;Path&gt;" class="s111" d="m1605.7 528.8c4.6-3.5 18.2 3.6 27.6 9.3l0.4-0.4c1.5-1.5 1.1-4-0.7-5-10.6-5.7-20.4-10.4-22.4-16.3z"/>
				</g>
				<g id="&lt;Group&gt;">
					<path id="&lt;Path&gt;" class="s112" d="m1658.2 529.5c2.4 2.9 1.4 7.6-2.2 10.5-3.6 2.9-8.4 2.8-10.8-0.1-2.3-2.9-1.3-7.6 2.3-10.5 3.6-2.9 8.4-2.8 10.7 0.1z"/>
					<path id="&lt;Path&gt;" class="s113" d="m1652 541.8c4.9-3 15.9 3.6 23.2 8.9l0.5-0.4c1.6-1.3 1.8-3.5 0.3-4.4-8.4-5.3-16.4-9.8-17-15.1z"/>
				</g>
				<g id="&lt;Group&gt;">
					<path id="&lt;Path&gt;" class="s114" d="m1617.9 570.5c3.9 0.6 6.5 4.8 5.9 9.3-0.7 4.6-4.5 7.8-8.4 7.2-3.9-0.6-6.5-4.7-5.8-9.3 0.6-4.5 4.4-7.7 8.3-7.2z"/>
					<path id="&lt;Path&gt;" class="s115" d="m1621.2 583.7c1.4-5.5 12.2-8.4 19.9-9.7l0.1-0.6c0.3-2.1-0.8-3.8-2.3-3.4-8.4 2-16.1 4.4-19.4 1z"/>
				</g>
				<g id="&lt;Group&gt;">
					<path id="&lt;Path&gt;" class="s116" d="m1596.4 606.8c4.5-1 9 1.7 10 6.2 1.1 4.5-1.7 9-6.2 10-4.5 1.1-8.9-1.7-10-6.2-1-4.5 1.8-9 6.2-10z"/>
					<path id="&lt;Path&gt;" class="s117" d="m1606.1 617.4c-0.4-5.4 11.4-12.5 21-17.3 1.1-0.5 1.6-1.6 1.4-2.8l-0.3-1.3c-0.2-0.7-1-1-1.7-0.7-11.4 6.2-21.7 12.9-28.2 11.3z"/>
				</g>
				<g id="&lt;Group&gt;">
					<path id="&lt;Path&gt;" class="s118" d="m1667.4 609.3c2.3-2.9 6.7-3.4 9.8-0.9 3.2 2.4 3.9 6.8 1.6 9.7-2.2 2.9-6.6 3.4-9.8 0.9-3.1-2.4-3.8-6.8-1.6-9.7z"/>
					<path id="&lt;Path&gt;" class="s119" d="m1678.9 612.2c-3.4-3.2-1.3-11.9 0.9-18.4 0.3-0.7-0.1-1.6-0.9-2.2l-0.9-0.7c-0.5-0.4-1.1-0.3-1.3 0.1-2.4 8-3.8 15.9-8.2 17.2z"/>
				</g>
				<g id="&lt;Group&gt;">
					<path id="&lt;Path&gt;" class="s120" d="m1685.9 673.5c1.2-4.5 5.8-7.2 10.2-6 4.5 1.2 7.1 5.7 5.9 10.2-1.1 4.4-5.7 7.1-10.1 5.9-4.5-1.1-7.1-5.7-6-10.1z"/>
					<path id="&lt;Path&gt;" class="s121" d="m1699.8 669.8c-4.9-2.1-5.7-15.4-5.5-26.1 0-1.5-0.9-2.7-2.3-3.1-1.1-0.3-2.2 0.6-2.2 1.7 0.2 12.7 1.2 24.5-3.2 29.4z"/>
				</g>
				<g id="&lt;Group&gt;">
					<path id="&lt;Path&gt;" class="s122" d="m1644.4 487.5c0.5 4.5-2.8 8.6-7.3 9.2-4.6 0.5-8.7-2.8-9.2-7.4-0.6-4.6 2.7-8.7 7.3-9.2 4.6-0.5 8.7 2.8 9.2 7.4z"/>
					<path id="&lt;Path&gt;" class="s123" d="m1632.7 495.8c5.6 0.2 11.4 13.5 15.1 23.8 0.2 0.6 0.7 0.9 1.3 0.8 1.9-0.2 3-2.1 2.3-3.8-4.5-11.3-9.2-21.4-7-27.2z"/>
				</g>
				<g id="&lt;Group&gt;">
					<path id="&lt;Path&gt;" class="s124" d="m1783.8 570.4c-4.3-1.7-6.4-6.5-4.7-10.8 1.8-4.3 6.6-6.3 10.9-4.6 4.2 1.7 6.3 6.5 4.6 10.8-1.7 4.3-6.6 6.3-10.8 4.6z"/>
					<path id="&lt;Path&gt;" class="s125" d="m1781.9 556.2c-2.7 4.7-16.7 3.7-27.3 2.1-1-0.2-2 0.4-2.4 1.3-0.6 1.4 0.4 3 1.9 3.2 12.3 1.3 23.8 1.9 28 6.7z"/>
				</g>
				<g id="&lt;Group&gt;">
					<path id="&lt;Path&gt;" class="s126" d="m1746.3 583.9c-3.5-1.4-5-6.1-3.3-10.3 1.7-4.3 6-6.6 9.5-5.2 3.6 1.5 5.1 6.1 3.4 10.4-1.8 4.2-6 6.5-9.6 5.1z"/>
					<path id="&lt;Path&gt;" class="s127" d="m1745.6 570.1c-2.7 4.7-14.5 4.6-23.6 3.6-0.8-0.1-1.7 0.5-2.1 1.5-0.6 1.4 0.1 2.8 1.4 2.9 10.5 0.6 20.3 0.5 23.6 5z"/>
				</g>
				<g id="&lt;Group&gt;">
					<path id="&lt;Path&gt;" class="s128" d="m1712.7 535.6c-2.6 3-7.5 3.1-11.1 0.1-3.5-2.9-4.2-7.8-1.6-10.9 2.5-3 7.5-3.1 11-0.1 3.5 3 4.2 7.9 1.7 10.9z"/>
					<path id="&lt;Path&gt;" class="s129" d="m1700 531.2c3.8 3.9 1.7 12.9-0.7 19.5-0.2 0.7 0.2 1.6 1 2.2 1.1 1 2.6 1 2.8 0.1 2.3-7.9 3.8-15.5 8.3-16.3z"/>
				</g>
				<g id="&lt;Group&gt;">
					<path id="&lt;Path&gt;" class="s130" d="m1735.1 657c-1.9-4.2 0-9.1 4.2-11 4.2-1.9 9.1 0 11 4.2 1.9 4.2 0 9.1-4.2 11-4.2 1.9-9.1 0-11-4.2z"/>
					<path id="&lt;Path&gt;" class="s131" d="m1743.7 645.5c-4.9 1.3-14-9.3-20.6-17.9-1.3-1.7-4-1.7-5.3 0-0.4 0.6-0.4 1.4 0.1 1.9 8.3 10.1 17 19 16.6 25.7z"/>
				</g>
				<g id="&lt;Group&gt;">
					<path id="&lt;Path&gt;" class="s132" d="m1730.8 483.8c-3.5 3.1-8.7 2.8-11.8-0.7-3-3.4-2.7-8.7 0.8-11.7 3.4-3.1 8.7-2.8 11.7 0.7 3.1 3.4 2.7 8.7-0.7 11.7z"/>
					<path id="&lt;Path&gt;" class="s133" d="m1717.2 479.1c3.2 4.8-5 17.9-11.4 26.8l3.2 3.6c7.5-11.3 13.5-22.9 20.2-24.6z"/>
				</g>
				<g id="&lt;Group&gt;">
					<path id="&lt;Path&gt;" class="s134" d="m1642.3 656.3c3.3-3.2 8.6-3.2 11.8 0.1 3.2 3.2 3.2 8.5-0.1 11.7-3.2 3.3-8.5 3.2-11.7 0-3.3-3.3-3.3-8.6 0-11.8z"/>
					<path id="&lt;Path&gt;" class="s135" d="m1656.1 660.3c-3.1-4.3 2.9-16.2 8.6-25.3 0.7-1.3 0.6-2.9-0.5-3.9-0.8-0.8-2.1-0.7-2.7 0.3-6.3 11-11.4 21.8-17.7 23.7z"/>
				</g>
			</g>
			<g id="&lt;Group&gt;">
				<g id="&lt;Group&gt;">
					<path id="&lt;Path&gt;" class="s136" d="m798.6 928.5c0 178.8 150.4 323.7 335.9 323.7 185.6 0 344.3-151.2 344.3-330 0-178.8-158.7-317.4-344.3-317.4-185.5 0-335.9 144.9-335.9 323.7z"/>
					<g id="&lt;Group&gt;">
						<path id="&lt;Path&gt;" class="s0" d="m1452.4 849.8q0.3 0 0.6-0.1c1.3-0.3 2-1.5 1.7-2.7-3.6-13.1-8.3-26.1-13.8-38.6-0.5-1.1-1.8-1.6-3-1.2-1.2 0.5-1.7 1.8-1.2 3 5.4 12.3 9.9 25.1 13.5 37.9 0.3 1 1.2 1.7 2.2 1.7z"/>
						<path id="&lt;Path&gt;" class="s0" d="m1401.1 748.6c0.5 0 1-0.1 1.4-0.4 1-0.8 1.2-2.2 0.4-3.1-62.2-79.6-162.5-127.1-268.2-127.1-45.1 0-88.8 8.9-129.7 26.2-1.2 0.5-1.7 1.9-1.2 3 0.5 1.1 1.9 1.6 3 1.1 40.4-17.1 83.4-25.8 127.9-25.8 104.3 0 203.2 46.8 264.5 125.2 0.5 0.6 1.2 0.9 1.9 0.9z"/>
					</g>
					<path id="&lt;Path&gt;" class="s2" d="m844.3 928.5c0 154.8 130.2 280.2 290.8 280.2 160.6 0 298-130.9 298-285.7 0-154.7-137.4-274.7-298-274.7-160.6 0-290.8 125.4-290.8 280.2z"/>
					<path id="&lt;Path&gt;" class="s7" d="m844.3 928.5c0-154.8 130.2-280.2 290.8-280.2 87 0 167.1 35.2 222.3 92l-224 179.6-46 285c-137.9-21.9-243.1-137.3-243.1-276.4z"/>
					<path id="&lt;Path&gt;" class="s137" d="m883.9 909c0 139.7 119.9 252.9 267.9 252.9 147.9 0 274.5-118.2 274.5-257.8 0-139.7-126.6-248-274.5-248-148 0-267.9 113.3-267.9 252.9z"/>
					<path id="&lt;Path&gt;" class="s138" d="m1358.8 914c0.7 11.9 11.3 20.9 23.6 20.3 12.4-0.7 21.8-10.9 21.1-22.8-0.7-11.9-11.3-21-23.7-20.3-12.3 0.7-21.7 10.9-21 22.8z"/>
					<path id="&lt;Path&gt;" class="s138" d="m875.1 941.1c0.7 11.9 11.3 21 23.6 20.3 12.4-0.7 21.8-10.9 21.1-22.8-0.7-11.9-11.3-21-23.7-20.3-12.3 0.7-21.7 10.9-21 22.8z"/>
					<path id="&lt;Path&gt;" class="s138" d="m1178.8 1134.7c-12.2 2.1-20.2 13.4-18 25.1 2.2 11.7 13.9 19.5 26 17.3 12.2-2.1 20.3-13.3 18-25.1-2.2-11.7-13.9-19.4-26-17.3z"/>
					<path id="&lt;Path&gt;" class="s138" d="m1091.7 675.4c-12.1 2.2-20.2 13.4-18 25.1 2.2 11.7 13.9 19.5 26.1 17.4 12.1-2.2 20.2-13.4 18-25.1-2.2-11.7-13.9-19.5-26.1-17.4z"/>
					<path id="&lt;Path&gt;" class="s138" d="m1019.6 1147c-2.3 5.6-1.7 10.7 1.3 11.6 3 0.8 7.2-2.9 9.5-8.5 2.3-5.5 1.7-10.7-1.3-11.5-3-0.9-7.2 2.9-9.5 8.4z"/>
					<path id="&lt;Path&gt;" class="s138" d="m1214.2 711.4c-2.3 5.5-1.7 10.7 1.3 11.6 3 0.8 7.2-3 9.5-8.5 2.3-5.5 1.7-10.7-1.3-11.6-3-0.8-7.2 3-9.5 8.5z"/>
					<path id="&lt;Path&gt;" class="s138" d="m918 1064.2c-4.9 3.6-7.2 8.3-5.1 10.5 2 2.3 7.7 1.1 12.6-2.4 5-3.6 7.3-8.3 5.2-10.6-2.1-2.2-7.8-1.1-12.7 2.5z"/>
					<path id="&lt;Path&gt;" class="s138" d="m1319 789.3c-4.9 3.6-7.2 8.3-5.1 10.5 2.1 2.2 7.8 1.1 12.7-2.5 4.9-3.6 7.2-8.3 5.1-10.5-2-2.2-7.7-1.1-12.7 2.5z"/>
					<path id="&lt;Path&gt;" class="s138" d="m905.2 817.6c-5.5-2.6-10.9-2.4-12 0.4-1.1 2.8 2.5 7.2 8.1 9.7 5.6 2.6 11 2.4 12.1-0.4 1.1-2.8-2.6-7.2-8.2-9.7z"/>
					<path id="&lt;Path&gt;" class="s138" d="m1343.3 1033.8c-5.6-2.5-11-2.3-12.1 0.5-1.1 2.8 2.6 7.1 8.1 9.7 5.6 2.5 11 2.3 12.1-0.5 1.1-2.8-2.5-7.1-8.1-9.7z"/>
					<path id="&lt;Path&gt;" class="s138" d="m997.8 725.4c-3.4-4.9-8.1-7.5-10.6-5.6-2.4 1.8-1.6 7.4 1.8 12.3 3.3 5 8.1 7.5 10.5 5.7 2.5-1.9 1.7-7.4-1.7-12.4z"/>
					<path id="&lt;Path&gt;" class="s138" d="m1255.6 1129.4c-3.4-5-8.1-7.5-10.5-5.7-2.5 1.9-1.7 7.4 1.7 12.4 3.4 5 8.1 7.5 10.5 5.7 2.5-1.9 1.7-7.4-1.7-12.4z"/>
					<path id="&lt;Path&gt;" class="s139" d="m1144.2 919.8l179.8 86.5c3.5 1.6 7.6-0.9 7.5-4.6l-0.8-22.3c-0.1-4.4 5.2-6.8 8.6-3.9l130 110.3c4 3.4 0.7 9.6-4.4 8.6l-167.5-34.5c-4-0.8-5.5-5.6-2.6-8.4l19.6-18.6c2.5-2.3 1.9-6.2-1-7.8l-174.1-96.5c-2.4-1.4-3.3-4.3-2-6.7 1.4-2.4 4.4-3.3 6.9-2.1z"/>
					<path id="&lt;Path&gt;" class="s12" d="m1449.1 1085.3c1.7 0 3.2-0.9 4-2.4 0.9-1.8 0.4-3.9-1.2-5.2l-28.5-22.7c-0.9-0.7-2.4-0.6-3.2 0.3-0.8 1-0.7 2.4 0.3 3.2l28.4 22.7c-37.9-8.4-126.7-27-128.5-27.2-1.3-0.2-2.4 0.8-2.6 2-0.1 1.2 0.8 2.3 2.1 2.4 2.6 0.4 70.7 14.7 128.2 26.8q0.5 0.1 1 0.1z"/>
					<path id="&lt;Path&gt;" class="s140" d="m1125.4 911.3l0.3-169.4c0-3.8-4.2-6.1-7.6-4.3l-20.2 10.9c-4 2.1-8.6-1.3-7.5-5.6l41.8-162c1.3-4.9 8.6-5 10-0.1l45.3 159.2c1 3.8-2.7 7.2-6.6 6l-26.2-8.2c-3.2-1-6.6 1.2-6.7 4.5l-12.3 169.2c-0.1 2.6-2.5 4.8-5.3 4.7-2.7-0.1-5-2.2-5-4.9z"/>
					<path id="&lt;Path&gt;" class="s12" d="m1173.6 724.4q0.4 0 0.8-0.1c1.2-0.5 1.8-1.7 1.3-2.9-0.8-2.4-19-67.2-34.3-122-0.6-2-2.3-3.3-4.4-3.2-2.1 0-3.8 1.4-4.2 3.4l-7.8 34.8c-0.3 1.2 0.5 2.3 1.7 2.6 1.3 0.3 2.5-0.5 2.8-1.7l7.8-34.8c9.8 36.3 33.4 120.8 34.1 122.5 0.4 0.9 1.2 1.4 2.2 1.4z"/>
					<path id="&lt;Path&gt;" class="s141" d="m1112.7 920.4c0 12.7 10.7 23 23.9 23 13.2 0 23.9-10.3 23.9-23 0-12.7-10.7-23-23.9-23-13.2 0-23.9 10.3-23.9 23z"/>
				</g>
				<g id="&lt;Group&gt;">
					<g id="&lt;Group&gt;">
						<path id="&lt;Path&gt;" class="s7" d="m978.2 609.2q1 0 2-0.4c156-78.4 290-1 291.3-0.2 2.2 1.3 4.9 0.6 6.1-1.5 1.3-2.2 0.6-4.9-1.5-6.1-1.4-0.9-35.2-20.7-89.2-30.8-49.8-9.3-126.9-11.5-210.7 30.6-2.2 1.1-3.1 3.8-2 6 0.8 1.5 2.4 2.4 4 2.4z"/>
					</g>
					<g id="&lt;Group&gt;">
						<path id="&lt;Path&gt;" class="s7" d="m981.2 570.7q1 0 2-0.5c156-78.4 290-0.9 291.3-0.1 2.1 1.2 4.9 0.5 6.1-1.6 1.3-2.1 0.6-4.8-1.5-6.1-1.5-0.8-35.2-20.6-89.2-30.7-49.9-9.3-126.9-11.6-210.7 30.6-2.2 1.1-3.1 3.7-2 5.9 0.8 1.6 2.3 2.5 4 2.5z"/>
					</g>
				</g>
				<g id="&lt;Group&gt;">
					<g id="&lt;Group&gt;">
						<path id="&lt;Path&gt;" class="s7" d="m1509.7 887.4q-0.3 1-0.1 2c27.5 172.4-86.8 276.8-88 277.8-1.8 1.6-2 4.4-0.4 6.3 1.7 1.8 4.5 2 6.3 0.3 1.2-1 30.3-27.2 56.3-75.7 23.9-44.7 49.4-117.4 34.5-210.1-0.3-2.4-2.6-4.1-5-3.7-1.8 0.3-3.1 1.5-3.6 3.1z"/>
					</g>
					<g id="&lt;Group&gt;">
						<path id="&lt;Path&gt;" class="s7" d="m1545.6 901.9q-0.3 0.9-0.2 2c27.6 172.4-86.8 276.8-87.9 277.8-1.9 1.6-2 4.4-0.4 6.3 1.6 1.8 4.4 2 6.3 0.3 1.2-1.1 30.3-27.2 56.2-75.7 24-44.7 49.4-117.4 34.6-210.1-0.4-2.4-2.7-4.1-5.1-3.7-1.7 0.3-3 1.5-3.5 3.1z"/>
					</g>
				</g>
			</g>
		</g>
	</g>
</svg>